<?xml version="1.0" encoding="utf-8" standalone="no"?>
<!DOCTYPE svg PUBLIC "-//W3C//DTD SVG 1.1//EN"
  "http://www.w3.org/Graphics/SVG/1.1/DTD/svg11.dtd">
<svg xmlns:xlink="http://www.w3.org/1999/xlink" width="1008pt" height="468pt" viewBox="0 0 1008 468" xmlns="http://www.w3.org/2000/svg" version="1.1">
 <metadata>
  <rdf:RDF xmlns:dc="http://purl.org/dc/elements/1.1/" xmlns:cc="http://creativecommons.org/ns#" xmlns:rdf="http://www.w3.org/1999/02/22-rdf-syntax-ns#">
   <cc:Work>
    <dc:type rdf:resource="http://purl.org/dc/dcmitype/StillImage"/>
    <dc:date>2026-04-16T05:40:22.057907</dc:date>
    <dc:format>image/svg+xml</dc:format>
    <dc:creator>
     <cc:Agent>
      <dc:title>Matplotlib v3.10.7, https://matplotlib.org/</dc:title>
     </cc:Agent>
    </dc:creator>
   </cc:Work>
  </rdf:RDF>
 </metadata>
 <defs>
  <style type="text/css">*{stroke-linejoin: round; stroke-linecap: butt}</style>
 </defs>
 <g id="figure_1">
  <g id="patch_1">
   <path d="M 0 468
L 1008 468
L 1008 0
L 0 0
z
" style="fill: #ffffff"/>
  </g>
  <g id="axes_1">
   <g id="patch_2">
    <path d="M 30.040865 412.736059
L 1004.99976 412.736059
L 1004.99976 35.704659
L 30.040865 35.704659
z
" style="fill: #ffffff"/>
   </g>
   <g id="matplotlib.axis_1">
    <g id="xtick_1">
     <g id="line2d_1">
      <defs>
       <path id="mb584e5fd6b" d="M 0 0
L 0 3.5
" style="stroke: #000000; stroke-width: 0.8"/>
      </defs>
      <g>
       <use xlink:href="#mb584e5fd6b" x="101.582217" y="412.736059" style="stroke: #000000; stroke-width: 0.8"/>
      </g>
     </g>
     <g id="text_1">
      <!-- 200 -->
      <g transform="translate(86.614756 438.605866) rotate(-45) scale(0.1 -0.1)">
       <defs>
        <path id="DejaVuSans-32" d="M 1228 531
L 3431 531
L 3431 0
L 469 0
L 469 531
Q 828 903 1448 1529
Q 2069 2156 2228 2338
Q 2531 2678 2651 2914
Q 2772 3150 2772 3378
Q 2772 3750 2511 3984
Q 2250 4219 1831 4219
Q 1534 4219 1204 4116
Q 875 4013 500 3803
L 500 4441
Q 881 4594 1212 4672
Q 1544 4750 1819 4750
Q 2544 4750 2975 4387
Q 3406 4025 3406 3419
Q 3406 3131 3298 2873
Q 3191 2616 2906 2266
Q 2828 2175 2409 1742
Q 1991 1309 1228 531
z
" transform="scale(0.015625)"/>
        <path id="DejaVuSans-30" d="M 2034 4250
Q 1547 4250 1301 3770
Q 1056 3291 1056 2328
Q 1056 1369 1301 889
Q 1547 409 2034 409
Q 2525 409 2770 889
Q 3016 1369 3016 2328
Q 3016 3291 2770 3770
Q 2525 4250 2034 4250
z
M 2034 4750
Q 2819 4750 3233 4129
Q 3647 3509 3647 2328
Q 3647 1150 3233 529
Q 2819 -91 2034 -91
Q 1250 -91 836 529
Q 422 1150 422 2328
Q 422 3509 836 4129
Q 1250 4750 2034 4750
z
" transform="scale(0.015625)"/>
       </defs>
       <use xlink:href="#DejaVuSans-32"/>
       <use xlink:href="#DejaVuSans-30" transform="translate(63.623047 0)"/>
       <use xlink:href="#DejaVuSans-30" transform="translate(127.246094 0)"/>
      </g>
     </g>
    </g>
    <g id="xtick_2">
     <g id="line2d_2">
      <g>
       <use xlink:href="#mb584e5fd6b" x="177.207326" y="412.736059" style="stroke: #000000; stroke-width: 0.8"/>
      </g>
     </g>
     <g id="text_2">
      <!-- 500 -->
      <g transform="translate(162.239864 438.605866) rotate(-45) scale(0.1 -0.1)">
       <defs>
        <path id="DejaVuSans-35" d="M 691 4666
L 3169 4666
L 3169 4134
L 1269 4134
L 1269 2991
Q 1406 3038 1543 3061
Q 1681 3084 1819 3084
Q 2600 3084 3056 2656
Q 3513 2228 3513 1497
Q 3513 744 3044 326
Q 2575 -91 1722 -91
Q 1428 -91 1123 -41
Q 819 9 494 109
L 494 744
Q 775 591 1075 516
Q 1375 441 1709 441
Q 2250 441 2565 725
Q 2881 1009 2881 1497
Q 2881 1984 2565 2268
Q 2250 2553 1709 2553
Q 1456 2553 1204 2497
Q 953 2441 691 2322
L 691 4666
z
" transform="scale(0.015625)"/>
       </defs>
       <use xlink:href="#DejaVuSans-35"/>
       <use xlink:href="#DejaVuSans-30" transform="translate(63.623047 0)"/>
       <use xlink:href="#DejaVuSans-30" transform="translate(127.246094 0)"/>
      </g>
     </g>
    </g>
    <g id="xtick_3">
     <g id="line2d_3">
      <g>
       <use xlink:href="#mb584e5fd6b" x="252.832434" y="412.736059" style="stroke: #000000; stroke-width: 0.8"/>
      </g>
     </g>
     <g id="text_3">
      <!-- 993 -->
      <g transform="translate(237.864972 438.605866) rotate(-45) scale(0.1 -0.1)">
       <defs>
        <path id="DejaVuSans-39" d="M 703 97
L 703 672
Q 941 559 1184 500
Q 1428 441 1663 441
Q 2288 441 2617 861
Q 2947 1281 2994 2138
Q 2813 1869 2534 1725
Q 2256 1581 1919 1581
Q 1219 1581 811 2004
Q 403 2428 403 3163
Q 403 3881 828 4315
Q 1253 4750 1959 4750
Q 2769 4750 3195 4129
Q 3622 3509 3622 2328
Q 3622 1225 3098 567
Q 2575 -91 1691 -91
Q 1453 -91 1209 -44
Q 966 3 703 97
z
M 1959 2075
Q 2384 2075 2632 2365
Q 2881 2656 2881 3163
Q 2881 3666 2632 3958
Q 2384 4250 1959 4250
Q 1534 4250 1286 3958
Q 1038 3666 1038 3163
Q 1038 2656 1286 2365
Q 1534 2075 1959 2075
z
" transform="scale(0.015625)"/>
        <path id="DejaVuSans-33" d="M 2597 2516
Q 3050 2419 3304 2112
Q 3559 1806 3559 1356
Q 3559 666 3084 287
Q 2609 -91 1734 -91
Q 1441 -91 1130 -33
Q 819 25 488 141
L 488 750
Q 750 597 1062 519
Q 1375 441 1716 441
Q 2309 441 2620 675
Q 2931 909 2931 1356
Q 2931 1769 2642 2001
Q 2353 2234 1838 2234
L 1294 2234
L 1294 2753
L 1863 2753
Q 2328 2753 2575 2939
Q 2822 3125 2822 3475
Q 2822 3834 2567 4026
Q 2313 4219 1838 4219
Q 1578 4219 1281 4162
Q 984 4106 628 3988
L 628 4550
Q 988 4650 1302 4700
Q 1616 4750 1894 4750
Q 2613 4750 3031 4423
Q 3450 4097 3450 3541
Q 3450 3153 3228 2886
Q 3006 2619 2597 2516
z
" transform="scale(0.015625)"/>
       </defs>
       <use xlink:href="#DejaVuSans-39"/>
       <use xlink:href="#DejaVuSans-39" transform="translate(63.623047 0)"/>
       <use xlink:href="#DejaVuSans-33" transform="translate(127.246094 0)"/>
      </g>
     </g>
    </g>
    <g id="xtick_4">
     <g id="line2d_4">
      <g>
       <use xlink:href="#mb584e5fd6b" x="328.457542" y="412.736059" style="stroke: #000000; stroke-width: 0.8"/>
      </g>
     </g>
     <g id="text_4">
      <!-- 2,000 -->
      <g transform="translate(306.74384 445.352107) rotate(-45) scale(0.1 -0.1)">
       <defs>
        <path id="DejaVuSans-2c" d="M 750 794
L 1409 794
L 1409 256
L 897 -744
L 494 -744
L 750 256
L 750 794
z
" transform="scale(0.015625)"/>
       </defs>
       <use xlink:href="#DejaVuSans-32"/>
       <use xlink:href="#DejaVuSans-2c" transform="translate(63.623047 0)"/>
       <use xlink:href="#DejaVuSans-30" transform="translate(95.410156 0)"/>
       <use xlink:href="#DejaVuSans-30" transform="translate(159.033203 0)"/>
       <use xlink:href="#DejaVuSans-30" transform="translate(222.65625 0)"/>
      </g>
     </g>
    </g>
    <g id="xtick_5">
     <g id="line2d_5">
      <g>
       <use xlink:href="#mb584e5fd6b" x="404.08265" y="412.736059" style="stroke: #000000; stroke-width: 0.8"/>
      </g>
     </g>
     <g id="text_5">
      <!-- 5,658 -->
      <g transform="translate(382.368948 445.352107) rotate(-45) scale(0.1 -0.1)">
       <defs>
        <path id="DejaVuSans-36" d="M 2113 2584
Q 1688 2584 1439 2293
Q 1191 2003 1191 1497
Q 1191 994 1439 701
Q 1688 409 2113 409
Q 2538 409 2786 701
Q 3034 994 3034 1497
Q 3034 2003 2786 2293
Q 2538 2584 2113 2584
z
M 3366 4563
L 3366 3988
Q 3128 4100 2886 4159
Q 2644 4219 2406 4219
Q 1781 4219 1451 3797
Q 1122 3375 1075 2522
Q 1259 2794 1537 2939
Q 1816 3084 2150 3084
Q 2853 3084 3261 2657
Q 3669 2231 3669 1497
Q 3669 778 3244 343
Q 2819 -91 2113 -91
Q 1303 -91 875 529
Q 447 1150 447 2328
Q 447 3434 972 4092
Q 1497 4750 2381 4750
Q 2619 4750 2861 4703
Q 3103 4656 3366 4563
z
" transform="scale(0.015625)"/>
        <path id="DejaVuSans-38" d="M 2034 2216
Q 1584 2216 1326 1975
Q 1069 1734 1069 1313
Q 1069 891 1326 650
Q 1584 409 2034 409
Q 2484 409 2743 651
Q 3003 894 3003 1313
Q 3003 1734 2745 1975
Q 2488 2216 2034 2216
z
M 1403 2484
Q 997 2584 770 2862
Q 544 3141 544 3541
Q 544 4100 942 4425
Q 1341 4750 2034 4750
Q 2731 4750 3128 4425
Q 3525 4100 3525 3541
Q 3525 3141 3298 2862
Q 3072 2584 2669 2484
Q 3125 2378 3379 2068
Q 3634 1759 3634 1313
Q 3634 634 3220 271
Q 2806 -91 2034 -91
Q 1263 -91 848 271
Q 434 634 434 1313
Q 434 1759 690 2068
Q 947 2378 1403 2484
z
M 1172 3481
Q 1172 3119 1398 2916
Q 1625 2713 2034 2713
Q 2441 2713 2670 2916
Q 2900 3119 2900 3481
Q 2900 3844 2670 4047
Q 2441 4250 2034 4250
Q 1625 4250 1398 4047
Q 1172 3844 1172 3481
z
" transform="scale(0.015625)"/>
       </defs>
       <use xlink:href="#DejaVuSans-35"/>
       <use xlink:href="#DejaVuSans-2c" transform="translate(63.623047 0)"/>
       <use xlink:href="#DejaVuSans-36" transform="translate(95.410156 0)"/>
       <use xlink:href="#DejaVuSans-35" transform="translate(159.033203 0)"/>
       <use xlink:href="#DejaVuSans-38" transform="translate(222.65625 0)"/>
      </g>
     </g>
    </g>
    <g id="xtick_6">
     <g id="line2d_6">
      <g>
       <use xlink:href="#mb584e5fd6b" x="479.707758" y="412.736059" style="stroke: #000000; stroke-width: 0.8"/>
      </g>
     </g>
     <g id="text_6">
      <!-- 6,717 -->
      <g transform="translate(457.994056 445.352107) rotate(-45) scale(0.1 -0.1)">
       <defs>
        <path id="DejaVuSans-37" d="M 525 4666
L 3525 4666
L 3525 4397
L 1831 0
L 1172 0
L 2766 4134
L 525 4134
L 525 4666
z
" transform="scale(0.015625)"/>
        <path id="DejaVuSans-31" d="M 794 531
L 1825 531
L 1825 4091
L 703 3866
L 703 4441
L 1819 4666
L 2450 4666
L 2450 531
L 3481 531
L 3481 0
L 794 0
L 794 531
z
" transform="scale(0.015625)"/>
       </defs>
       <use xlink:href="#DejaVuSans-36"/>
       <use xlink:href="#DejaVuSans-2c" transform="translate(63.623047 0)"/>
       <use xlink:href="#DejaVuSans-37" transform="translate(95.410156 0)"/>
       <use xlink:href="#DejaVuSans-31" transform="translate(159.033203 0)"/>
       <use xlink:href="#DejaVuSans-37" transform="translate(222.65625 0)"/>
      </g>
     </g>
    </g>
    <g id="xtick_7">
     <g id="line2d_7">
      <g>
       <use xlink:href="#mb584e5fd6b" x="555.332867" y="412.736059" style="stroke: #000000; stroke-width: 0.8"/>
      </g>
     </g>
     <g id="text_7">
      <!-- 7,336 -->
      <g transform="translate(533.619164 445.352107) rotate(-45) scale(0.1 -0.1)">
       <use xlink:href="#DejaVuSans-37"/>
       <use xlink:href="#DejaVuSans-2c" transform="translate(63.623047 0)"/>
       <use xlink:href="#DejaVuSans-33" transform="translate(95.410156 0)"/>
       <use xlink:href="#DejaVuSans-33" transform="translate(159.033203 0)"/>
       <use xlink:href="#DejaVuSans-36" transform="translate(222.65625 0)"/>
      </g>
     </g>
    </g>
    <g id="xtick_8">
     <g id="line2d_8">
      <g>
       <use xlink:href="#mb584e5fd6b" x="630.957975" y="412.736059" style="stroke: #000000; stroke-width: 0.8"/>
      </g>
     </g>
     <g id="text_8">
      <!-- 10,189 -->
      <g transform="translate(604.745305 449.851074) rotate(-45) scale(0.1 -0.1)">
       <use xlink:href="#DejaVuSans-31"/>
       <use xlink:href="#DejaVuSans-30" transform="translate(63.623047 0)"/>
       <use xlink:href="#DejaVuSans-2c" transform="translate(127.246094 0)"/>
       <use xlink:href="#DejaVuSans-31" transform="translate(159.033203 0)"/>
       <use xlink:href="#DejaVuSans-38" transform="translate(222.65625 0)"/>
       <use xlink:href="#DejaVuSans-39" transform="translate(286.279297 0)"/>
      </g>
     </g>
    </g>
    <g id="xtick_9">
     <g id="line2d_9">
      <g>
       <use xlink:href="#mb584e5fd6b" x="706.583083" y="412.736059" style="stroke: #000000; stroke-width: 0.8"/>
      </g>
     </g>
     <g id="text_9">
      <!-- 20,758 -->
      <g transform="translate(680.370414 449.851074) rotate(-45) scale(0.1 -0.1)">
       <use xlink:href="#DejaVuSans-32"/>
       <use xlink:href="#DejaVuSans-30" transform="translate(63.623047 0)"/>
       <use xlink:href="#DejaVuSans-2c" transform="translate(127.246094 0)"/>
       <use xlink:href="#DejaVuSans-37" transform="translate(159.033203 0)"/>
       <use xlink:href="#DejaVuSans-35" transform="translate(222.65625 0)"/>
       <use xlink:href="#DejaVuSans-38" transform="translate(286.279297 0)"/>
      </g>
     </g>
    </g>
    <g id="xtick_10">
     <g id="line2d_10">
      <g>
       <use xlink:href="#mb584e5fd6b" x="782.208191" y="412.736059" style="stroke: #000000; stroke-width: 0.8"/>
      </g>
     </g>
     <g id="text_10">
      <!-- 25,000 -->
      <g transform="translate(755.995522 449.851074) rotate(-45) scale(0.1 -0.1)">
       <use xlink:href="#DejaVuSans-32"/>
       <use xlink:href="#DejaVuSans-35" transform="translate(63.623047 0)"/>
       <use xlink:href="#DejaVuSans-2c" transform="translate(127.246094 0)"/>
       <use xlink:href="#DejaVuSans-30" transform="translate(159.033203 0)"/>
       <use xlink:href="#DejaVuSans-30" transform="translate(222.65625 0)"/>
       <use xlink:href="#DejaVuSans-30" transform="translate(286.279297 0)"/>
      </g>
     </g>
    </g>
    <g id="xtick_11">
     <g id="line2d_11">
      <g>
       <use xlink:href="#mb584e5fd6b" x="857.833299" y="412.736059" style="stroke: #000000; stroke-width: 0.8"/>
      </g>
     </g>
     <g id="text_11">
      <!-- 70,000 -->
      <g transform="translate(831.62063 449.851074) rotate(-45) scale(0.1 -0.1)">
       <use xlink:href="#DejaVuSans-37"/>
       <use xlink:href="#DejaVuSans-30" transform="translate(63.623047 0)"/>
       <use xlink:href="#DejaVuSans-2c" transform="translate(127.246094 0)"/>
       <use xlink:href="#DejaVuSans-30" transform="translate(159.033203 0)"/>
       <use xlink:href="#DejaVuSans-30" transform="translate(222.65625 0)"/>
       <use xlink:href="#DejaVuSans-30" transform="translate(286.279297 0)"/>
      </g>
     </g>
    </g>
    <g id="xtick_12">
     <g id="line2d_12">
      <g>
       <use xlink:href="#mb584e5fd6b" x="933.458408" y="412.736059" style="stroke: #000000; stroke-width: 0.8"/>
      </g>
     </g>
     <g id="text_12">
      <!-- 78,478 -->
      <g transform="translate(907.245738 449.851074) rotate(-45) scale(0.1 -0.1)">
       <defs>
        <path id="DejaVuSans-34" d="M 2419 4116
L 825 1625
L 2419 1625
L 2419 4116
z
M 2253 4666
L 3047 4666
L 3047 1625
L 3713 1625
L 3713 1100
L 3047 1100
L 3047 0
L 2419 0
L 2419 1100
L 313 1100
L 313 1709
L 2253 4666
z
" transform="scale(0.015625)"/>
       </defs>
       <use xlink:href="#DejaVuSans-37"/>
       <use xlink:href="#DejaVuSans-38" transform="translate(63.623047 0)"/>
       <use xlink:href="#DejaVuSans-2c" transform="translate(127.246094 0)"/>
       <use xlink:href="#DejaVuSans-34" transform="translate(159.033203 0)"/>
       <use xlink:href="#DejaVuSans-37" transform="translate(222.65625 0)"/>
       <use xlink:href="#DejaVuSans-38" transform="translate(286.279297 0)"/>
      </g>
     </g>
    </g>
    <g id="text_13">
     <!-- Buses -->
     <g transform="translate(502.635156 462.920073) scale(0.1 -0.1)">
      <defs>
       <path id="DejaVuSans-42" d="M 1259 2228
L 1259 519
L 2272 519
Q 2781 519 3026 730
Q 3272 941 3272 1375
Q 3272 1813 3026 2020
Q 2781 2228 2272 2228
L 1259 2228
z
M 1259 4147
L 1259 2741
L 2194 2741
Q 2656 2741 2882 2914
Q 3109 3088 3109 3444
Q 3109 3797 2882 3972
Q 2656 4147 2194 4147
L 1259 4147
z
M 628 4666
L 2241 4666
Q 2963 4666 3353 4366
Q 3744 4066 3744 3513
Q 3744 3084 3544 2831
Q 3344 2578 2956 2516
Q 3422 2416 3680 2098
Q 3938 1781 3938 1306
Q 3938 681 3513 340
Q 3088 0 2303 0
L 628 0
L 628 4666
z
" transform="scale(0.015625)"/>
       <path id="DejaVuSans-75" d="M 544 1381
L 544 3500
L 1119 3500
L 1119 1403
Q 1119 906 1312 657
Q 1506 409 1894 409
Q 2359 409 2629 706
Q 2900 1003 2900 1516
L 2900 3500
L 3475 3500
L 3475 0
L 2900 0
L 2900 538
Q 2691 219 2414 64
Q 2138 -91 1772 -91
Q 1169 -91 856 284
Q 544 659 544 1381
z
M 1991 3584
L 1991 3584
z
" transform="scale(0.015625)"/>
       <path id="DejaVuSans-73" d="M 2834 3397
L 2834 2853
Q 2591 2978 2328 3040
Q 2066 3103 1784 3103
Q 1356 3103 1142 2972
Q 928 2841 928 2578
Q 928 2378 1081 2264
Q 1234 2150 1697 2047
L 1894 2003
Q 2506 1872 2764 1633
Q 3022 1394 3022 966
Q 3022 478 2636 193
Q 2250 -91 1575 -91
Q 1294 -91 989 -36
Q 684 19 347 128
L 347 722
Q 666 556 975 473
Q 1284 391 1588 391
Q 1994 391 2212 530
Q 2431 669 2431 922
Q 2431 1156 2273 1281
Q 2116 1406 1581 1522
L 1381 1569
Q 847 1681 609 1914
Q 372 2147 372 2553
Q 372 3047 722 3315
Q 1072 3584 1716 3584
Q 2034 3584 2315 3537
Q 2597 3491 2834 3397
z
" transform="scale(0.015625)"/>
       <path id="DejaVuSans-65" d="M 3597 1894
L 3597 1613
L 953 1613
Q 991 1019 1311 708
Q 1631 397 2203 397
Q 2534 397 2845 478
Q 3156 559 3463 722
L 3463 178
Q 3153 47 2828 -22
Q 2503 -91 2169 -91
Q 1331 -91 842 396
Q 353 884 353 1716
Q 353 2575 817 3079
Q 1281 3584 2069 3584
Q 2775 3584 3186 3129
Q 3597 2675 3597 1894
z
M 3022 2063
Q 3016 2534 2758 2815
Q 2500 3097 2075 3097
Q 1594 3097 1305 2825
Q 1016 2553 972 2059
L 3022 2063
z
" transform="scale(0.015625)"/>
      </defs>
      <use xlink:href="#DejaVuSans-42"/>
      <use xlink:href="#DejaVuSans-75" transform="translate(68.603516 0)"/>
      <use xlink:href="#DejaVuSans-73" transform="translate(131.982422 0)"/>
      <use xlink:href="#DejaVuSans-65" transform="translate(184.082031 0)"/>
      <use xlink:href="#DejaVuSans-73" transform="translate(245.605469 0)"/>
     </g>
    </g>
   </g>
   <g id="matplotlib.axis_2">
    <g id="ytick_1">
     <g id="line2d_13">
      <path d="M 30.040865 412.736059
L 1004.99976 412.736059
" clip-path="url(#p0500667365)" style="fill: none; stroke: #d6d6d6; stroke-opacity: 0.8; stroke-width: 0.8; stroke-linecap: square"/>
     </g>
     <g id="line2d_14">
      <defs>
       <path id="m027f63b856" d="M 0 0
L -3.5 0
" style="stroke: #000000; stroke-width: 0.8"/>
      </defs>
      <g>
       <use xlink:href="#m027f63b856" x="30.040865" y="412.736059" style="stroke: #000000; stroke-width: 0.8"/>
      </g>
     </g>
     <g id="text_14">
      <!-- 0 -->
      <g transform="translate(16.678365 416.535278) scale(0.1 -0.1)">
       <use xlink:href="#DejaVuSans-30"/>
      </g>
     </g>
    </g>
    <g id="ytick_2">
     <g id="line2d_15">
      <path d="M 30.040865 354.282378
L 1004.99976 354.282378
" clip-path="url(#p0500667365)" style="fill: none; stroke: #d6d6d6; stroke-opacity: 0.8; stroke-width: 0.8; stroke-linecap: square"/>
     </g>
     <g id="line2d_16">
      <g>
       <use xlink:href="#m027f63b856" x="30.040865" y="354.282378" style="stroke: #000000; stroke-width: 0.8"/>
      </g>
     </g>
     <g id="text_15">
      <!-- 1 -->
      <g transform="translate(16.678365 358.081597) scale(0.1 -0.1)">
       <use xlink:href="#DejaVuSans-31"/>
      </g>
     </g>
    </g>
    <g id="ytick_3">
     <g id="line2d_17">
      <path d="M 30.040865 295.828697
L 1004.99976 295.828697
" clip-path="url(#p0500667365)" style="fill: none; stroke: #d6d6d6; stroke-opacity: 0.8; stroke-width: 0.8; stroke-linecap: square"/>
     </g>
     <g id="line2d_18">
      <g>
       <use xlink:href="#m027f63b856" x="30.040865" y="295.828697" style="stroke: #000000; stroke-width: 0.8"/>
      </g>
     </g>
     <g id="text_16">
      <!-- 2 -->
      <g transform="translate(16.678365 299.627916) scale(0.1 -0.1)">
       <use xlink:href="#DejaVuSans-32"/>
      </g>
     </g>
    </g>
    <g id="ytick_4">
     <g id="line2d_19">
      <path d="M 30.040865 237.375016
L 1004.99976 237.375016
" clip-path="url(#p0500667365)" style="fill: none; stroke: #d6d6d6; stroke-opacity: 0.8; stroke-width: 0.8; stroke-linecap: square"/>
     </g>
     <g id="line2d_20">
      <g>
       <use xlink:href="#m027f63b856" x="30.040865" y="237.375016" style="stroke: #000000; stroke-width: 0.8"/>
      </g>
     </g>
     <g id="text_17">
      <!-- 3 -->
      <g transform="translate(16.678365 241.174235) scale(0.1 -0.1)">
       <use xlink:href="#DejaVuSans-33"/>
      </g>
     </g>
    </g>
    <g id="ytick_5">
     <g id="line2d_21">
      <path d="M 30.040865 178.921335
L 1004.99976 178.921335
" clip-path="url(#p0500667365)" style="fill: none; stroke: #d6d6d6; stroke-opacity: 0.8; stroke-width: 0.8; stroke-linecap: square"/>
     </g>
     <g id="line2d_22">
      <g>
       <use xlink:href="#m027f63b856" x="30.040865" y="178.921335" style="stroke: #000000; stroke-width: 0.8"/>
      </g>
     </g>
     <g id="text_18">
      <!-- 4 -->
      <g transform="translate(16.678365 182.720554) scale(0.1 -0.1)">
       <use xlink:href="#DejaVuSans-34"/>
      </g>
     </g>
    </g>
    <g id="ytick_6">
     <g id="line2d_23">
      <path d="M 30.040865 120.467654
L 1004.99976 120.467654
" clip-path="url(#p0500667365)" style="fill: none; stroke: #d6d6d6; stroke-opacity: 0.8; stroke-width: 0.8; stroke-linecap: square"/>
     </g>
     <g id="line2d_24">
      <g>
       <use xlink:href="#m027f63b856" x="30.040865" y="120.467654" style="stroke: #000000; stroke-width: 0.8"/>
      </g>
     </g>
     <g id="text_19">
      <!-- 5 -->
      <g transform="translate(16.678365 124.266873) scale(0.1 -0.1)">
       <use xlink:href="#DejaVuSans-35"/>
      </g>
     </g>
    </g>
    <g id="ytick_7">
     <g id="line2d_25">
      <path d="M 30.040865 62.013973
L 1004.99976 62.013973
" clip-path="url(#p0500667365)" style="fill: none; stroke: #d6d6d6; stroke-opacity: 0.8; stroke-width: 0.8; stroke-linecap: square"/>
     </g>
     <g id="line2d_26">
      <g>
       <use xlink:href="#m027f63b856" x="30.040865" y="62.013973" style="stroke: #000000; stroke-width: 0.8"/>
      </g>
     </g>
     <g id="text_20">
      <!-- 6 -->
      <g transform="translate(16.678365 65.813192) scale(0.1 -0.1)">
       <use xlink:href="#DejaVuSans-36"/>
      </g>
     </g>
    </g>
    <g id="text_21">
     <!-- Time per full Newton iteration (ms) -->
     <g transform="translate(10.598678 312.006297) rotate(-90) scale(0.1 -0.1)">
      <defs>
       <path id="DejaVuSans-54" d="M -19 4666
L 3928 4666
L 3928 4134
L 2272 4134
L 2272 0
L 1638 0
L 1638 4134
L -19 4134
L -19 4666
z
" transform="scale(0.015625)"/>
       <path id="DejaVuSans-69" d="M 603 3500
L 1178 3500
L 1178 0
L 603 0
L 603 3500
z
M 603 4863
L 1178 4863
L 1178 4134
L 603 4134
L 603 4863
z
" transform="scale(0.015625)"/>
       <path id="DejaVuSans-6d" d="M 3328 2828
Q 3544 3216 3844 3400
Q 4144 3584 4550 3584
Q 5097 3584 5394 3201
Q 5691 2819 5691 2113
L 5691 0
L 5113 0
L 5113 2094
Q 5113 2597 4934 2840
Q 4756 3084 4391 3084
Q 3944 3084 3684 2787
Q 3425 2491 3425 1978
L 3425 0
L 2847 0
L 2847 2094
Q 2847 2600 2669 2842
Q 2491 3084 2119 3084
Q 1678 3084 1418 2786
Q 1159 2488 1159 1978
L 1159 0
L 581 0
L 581 3500
L 1159 3500
L 1159 2956
Q 1356 3278 1631 3431
Q 1906 3584 2284 3584
Q 2666 3584 2933 3390
Q 3200 3197 3328 2828
z
" transform="scale(0.015625)"/>
       <path id="DejaVuSans-20" transform="scale(0.015625)"/>
       <path id="DejaVuSans-70" d="M 1159 525
L 1159 -1331
L 581 -1331
L 581 3500
L 1159 3500
L 1159 2969
Q 1341 3281 1617 3432
Q 1894 3584 2278 3584
Q 2916 3584 3314 3078
Q 3713 2572 3713 1747
Q 3713 922 3314 415
Q 2916 -91 2278 -91
Q 1894 -91 1617 61
Q 1341 213 1159 525
z
M 3116 1747
Q 3116 2381 2855 2742
Q 2594 3103 2138 3103
Q 1681 3103 1420 2742
Q 1159 2381 1159 1747
Q 1159 1113 1420 752
Q 1681 391 2138 391
Q 2594 391 2855 752
Q 3116 1113 3116 1747
z
" transform="scale(0.015625)"/>
       <path id="DejaVuSans-72" d="M 2631 2963
Q 2534 3019 2420 3045
Q 2306 3072 2169 3072
Q 1681 3072 1420 2755
Q 1159 2438 1159 1844
L 1159 0
L 581 0
L 581 3500
L 1159 3500
L 1159 2956
Q 1341 3275 1631 3429
Q 1922 3584 2338 3584
Q 2397 3584 2469 3576
Q 2541 3569 2628 3553
L 2631 2963
z
" transform="scale(0.015625)"/>
       <path id="DejaVuSans-66" d="M 2375 4863
L 2375 4384
L 1825 4384
Q 1516 4384 1395 4259
Q 1275 4134 1275 3809
L 1275 3500
L 2222 3500
L 2222 3053
L 1275 3053
L 1275 0
L 697 0
L 697 3053
L 147 3053
L 147 3500
L 697 3500
L 697 3744
Q 697 4328 969 4595
Q 1241 4863 1831 4863
L 2375 4863
z
" transform="scale(0.015625)"/>
       <path id="DejaVuSans-6c" d="M 603 4863
L 1178 4863
L 1178 0
L 603 0
L 603 4863
z
" transform="scale(0.015625)"/>
       <path id="DejaVuSans-4e" d="M 628 4666
L 1478 4666
L 3547 763
L 3547 4666
L 4159 4666
L 4159 0
L 3309 0
L 1241 3903
L 1241 0
L 628 0
L 628 4666
z
" transform="scale(0.015625)"/>
       <path id="DejaVuSans-77" d="M 269 3500
L 844 3500
L 1563 769
L 2278 3500
L 2956 3500
L 3675 769
L 4391 3500
L 4966 3500
L 4050 0
L 3372 0
L 2619 2869
L 1863 0
L 1184 0
L 269 3500
z
" transform="scale(0.015625)"/>
       <path id="DejaVuSans-74" d="M 1172 4494
L 1172 3500
L 2356 3500
L 2356 3053
L 1172 3053
L 1172 1153
Q 1172 725 1289 603
Q 1406 481 1766 481
L 2356 481
L 2356 0
L 1766 0
Q 1100 0 847 248
Q 594 497 594 1153
L 594 3053
L 172 3053
L 172 3500
L 594 3500
L 594 4494
L 1172 4494
z
" transform="scale(0.015625)"/>
       <path id="DejaVuSans-6f" d="M 1959 3097
Q 1497 3097 1228 2736
Q 959 2375 959 1747
Q 959 1119 1226 758
Q 1494 397 1959 397
Q 2419 397 2687 759
Q 2956 1122 2956 1747
Q 2956 2369 2687 2733
Q 2419 3097 1959 3097
z
M 1959 3584
Q 2709 3584 3137 3096
Q 3566 2609 3566 1747
Q 3566 888 3137 398
Q 2709 -91 1959 -91
Q 1206 -91 779 398
Q 353 888 353 1747
Q 353 2609 779 3096
Q 1206 3584 1959 3584
z
" transform="scale(0.015625)"/>
       <path id="DejaVuSans-6e" d="M 3513 2113
L 3513 0
L 2938 0
L 2938 2094
Q 2938 2591 2744 2837
Q 2550 3084 2163 3084
Q 1697 3084 1428 2787
Q 1159 2491 1159 1978
L 1159 0
L 581 0
L 581 3500
L 1159 3500
L 1159 2956
Q 1366 3272 1645 3428
Q 1925 3584 2291 3584
Q 2894 3584 3203 3211
Q 3513 2838 3513 2113
z
" transform="scale(0.015625)"/>
       <path id="DejaVuSans-61" d="M 2194 1759
Q 1497 1759 1228 1600
Q 959 1441 959 1056
Q 959 750 1161 570
Q 1363 391 1709 391
Q 2188 391 2477 730
Q 2766 1069 2766 1631
L 2766 1759
L 2194 1759
z
M 3341 1997
L 3341 0
L 2766 0
L 2766 531
Q 2569 213 2275 61
Q 1981 -91 1556 -91
Q 1019 -91 701 211
Q 384 513 384 1019
Q 384 1609 779 1909
Q 1175 2209 1959 2209
L 2766 2209
L 2766 2266
Q 2766 2663 2505 2880
Q 2244 3097 1772 3097
Q 1472 3097 1187 3025
Q 903 2953 641 2809
L 641 3341
Q 956 3463 1253 3523
Q 1550 3584 1831 3584
Q 2591 3584 2966 3190
Q 3341 2797 3341 1997
z
" transform="scale(0.015625)"/>
       <path id="DejaVuSans-28" d="M 1984 4856
Q 1566 4138 1362 3434
Q 1159 2731 1159 2009
Q 1159 1288 1364 580
Q 1569 -128 1984 -844
L 1484 -844
Q 1016 -109 783 600
Q 550 1309 550 2009
Q 550 2706 781 3412
Q 1013 4119 1484 4856
L 1984 4856
z
" transform="scale(0.015625)"/>
       <path id="DejaVuSans-29" d="M 513 4856
L 1013 4856
Q 1481 4119 1714 3412
Q 1947 2706 1947 2009
Q 1947 1309 1714 600
Q 1481 -109 1013 -844
L 513 -844
Q 928 -128 1133 580
Q 1338 1288 1338 2009
Q 1338 2731 1133 3434
Q 928 4138 513 4856
z
" transform="scale(0.015625)"/>
      </defs>
      <use xlink:href="#DejaVuSans-54"/>
      <use xlink:href="#DejaVuSans-69" transform="translate(57.958984 0)"/>
      <use xlink:href="#DejaVuSans-6d" transform="translate(85.742188 0)"/>
      <use xlink:href="#DejaVuSans-65" transform="translate(183.154297 0)"/>
      <use xlink:href="#DejaVuSans-20" transform="translate(244.677734 0)"/>
      <use xlink:href="#DejaVuSans-70" transform="translate(276.464844 0)"/>
      <use xlink:href="#DejaVuSans-65" transform="translate(339.941406 0)"/>
      <use xlink:href="#DejaVuSans-72" transform="translate(401.464844 0)"/>
      <use xlink:href="#DejaVuSans-20" transform="translate(442.578125 0)"/>
      <use xlink:href="#DejaVuSans-66" transform="translate(474.365234 0)"/>
      <use xlink:href="#DejaVuSans-75" transform="translate(509.570312 0)"/>
      <use xlink:href="#DejaVuSans-6c" transform="translate(572.949219 0)"/>
      <use xlink:href="#DejaVuSans-6c" transform="translate(600.732422 0)"/>
      <use xlink:href="#DejaVuSans-20" transform="translate(628.515625 0)"/>
      <use xlink:href="#DejaVuSans-4e" transform="translate(660.302734 0)"/>
      <use xlink:href="#DejaVuSans-65" transform="translate(735.107422 0)"/>
      <use xlink:href="#DejaVuSans-77" transform="translate(796.630859 0)"/>
      <use xlink:href="#DejaVuSans-74" transform="translate(878.417969 0)"/>
      <use xlink:href="#DejaVuSans-6f" transform="translate(917.626953 0)"/>
      <use xlink:href="#DejaVuSans-6e" transform="translate(978.808594 0)"/>
      <use xlink:href="#DejaVuSans-20" transform="translate(1042.1875 0)"/>
      <use xlink:href="#DejaVuSans-69" transform="translate(1073.974609 0)"/>
      <use xlink:href="#DejaVuSans-74" transform="translate(1101.757812 0)"/>
      <use xlink:href="#DejaVuSans-65" transform="translate(1140.966797 0)"/>
      <use xlink:href="#DejaVuSans-72" transform="translate(1202.490234 0)"/>
      <use xlink:href="#DejaVuSans-61" transform="translate(1243.603516 0)"/>
      <use xlink:href="#DejaVuSans-74" transform="translate(1304.882812 0)"/>
      <use xlink:href="#DejaVuSans-69" transform="translate(1344.091797 0)"/>
      <use xlink:href="#DejaVuSans-6f" transform="translate(1371.875 0)"/>
      <use xlink:href="#DejaVuSans-6e" transform="translate(1433.056641 0)"/>
      <use xlink:href="#DejaVuSans-20" transform="translate(1496.435547 0)"/>
      <use xlink:href="#DejaVuSans-28" transform="translate(1528.222656 0)"/>
      <use xlink:href="#DejaVuSans-6d" transform="translate(1567.236328 0)"/>
      <use xlink:href="#DejaVuSans-73" transform="translate(1664.648438 0)"/>
      <use xlink:href="#DejaVuSans-29" transform="translate(1716.748047 0)"/>
     </g>
    </g>
   </g>
   <g id="patch_3">
    <path d="M 74.357178 412.736059
L 128.807256 412.736059
L 128.807256 410.401159
L 74.357178 410.401159
z
" clip-path="url(#p0500667365)" style="fill: #4c78a8"/>
   </g>
   <g id="patch_4">
    <path d="M 149.982287 412.736059
L 204.432365 412.736059
L 204.432365 410.793448
L 149.982287 410.793448
z
" clip-path="url(#p0500667365)" style="fill: #4c78a8"/>
   </g>
   <g id="patch_5">
    <path d="M 225.607395 412.736059
L 280.057473 412.736059
L 280.057473 409.632169
L 225.607395 409.632169
z
" clip-path="url(#p0500667365)" style="fill: #4c78a8"/>
   </g>
   <g id="patch_6">
    <path d="M 301.232503 412.736059
L 355.682581 412.736059
L 355.682581 410.411551
L 301.232503 410.411551
z
" clip-path="url(#p0500667365)" style="fill: #4c78a8"/>
   </g>
   <g id="patch_7">
    <path d="M 376.857611 412.736059
L 431.307689 412.736059
L 431.307689 407.36855
L 376.857611 407.36855
z
" clip-path="url(#p0500667365)" style="fill: #4c78a8"/>
   </g>
   <g id="patch_8">
    <path d="M 452.482719 412.736059
L 506.932797 412.736059
L 506.932797 405.688494
L 452.482719 405.688494
z
" clip-path="url(#p0500667365)" style="fill: #4c78a8"/>
   </g>
   <g id="patch_9">
    <path d="M 528.107828 412.736059
L 582.557906 412.736059
L 582.557906 406.158559
L 528.107828 406.158559
z
" clip-path="url(#p0500667365)" style="fill: #4c78a8"/>
   </g>
   <g id="patch_10">
    <path d="M 603.732936 412.736059
L 658.183014 412.736059
L 658.183014 403.520836
L 603.732936 403.520836
z
" clip-path="url(#p0500667365)" style="fill: #4c78a8"/>
   </g>
   <g id="patch_11">
    <path d="M 679.358044 412.736059
L 733.808122 412.736059
L 733.808122 405.638808
L 679.358044 405.638808
z
" clip-path="url(#p0500667365)" style="fill: #4c78a8"/>
   </g>
   <g id="patch_12">
    <path d="M 754.983152 412.736059
L 809.43323 412.736059
L 809.43323 384.212286
L 754.983152 384.212286
z
" clip-path="url(#p0500667365)" style="fill: #4c78a8"/>
   </g>
   <g id="patch_13">
    <path d="M 830.60826 412.736059
L 885.058338 412.736059
L 885.058338 367.767284
L 830.60826 367.767284
z
" clip-path="url(#p0500667365)" style="fill: #4c78a8"/>
   </g>
   <g id="patch_14">
    <path d="M 906.233369 412.736059
L 960.683447 412.736059
L 960.683447 363.84242
L 906.233369 363.84242
z
" clip-path="url(#p0500667365)" style="fill: #4c78a8"/>
   </g>
   <g id="patch_15">
    <path d="M 74.357178 410.401159
L 128.807256 410.401159
L 128.807256 409.638014
L 74.357178 409.638014
z
" clip-path="url(#p0500667365)" style="fill: #72b7b2"/>
   </g>
   <g id="patch_16">
    <path d="M 149.982287 410.793448
L 204.432365 410.793448
L 204.432365 410.142664
L 149.982287 410.142664
z
" clip-path="url(#p0500667365)" style="fill: #72b7b2"/>
   </g>
   <g id="patch_17">
    <path d="M 225.607395 409.632169
L 280.057473 409.632169
L 280.057473 408.869348
L 225.607395 408.869348
z
" clip-path="url(#p0500667365)" style="fill: #72b7b2"/>
   </g>
   <g id="patch_18">
    <path d="M 301.232503 410.411551
L 355.682581 410.411551
L 355.682581 409.760767
L 301.232503 409.760767
z
" clip-path="url(#p0500667365)" style="fill: #72b7b2"/>
   </g>
   <g id="patch_19">
    <path d="M 376.857611 407.36855
L 431.307689 407.36855
L 431.307689 406.44352
L 376.857611 406.44352
z
" clip-path="url(#p0500667365)" style="fill: #72b7b2"/>
   </g>
   <g id="patch_20">
    <path d="M 452.482719 405.688494
L 506.932797 405.688494
L 506.932797 404.714265
L 452.482719 404.714265
z
" clip-path="url(#p0500667365)" style="fill: #72b7b2"/>
   </g>
   <g id="patch_21">
    <path d="M 528.107828 406.158559
L 582.557906 406.158559
L 582.557906 405.215993
L 528.107828 405.215993
z
" clip-path="url(#p0500667365)" style="fill: #72b7b2"/>
   </g>
   <g id="patch_22">
    <path d="M 603.732936 403.520836
L 658.183014 403.520836
L 658.183014 402.347379
L 603.732936 402.347379
z
" clip-path="url(#p0500667365)" style="fill: #72b7b2"/>
   </g>
   <g id="patch_23">
    <path d="M 679.358044 405.638808
L 733.808122 405.638808
L 733.808122 404.307769
L 679.358044 404.307769
z
" clip-path="url(#p0500667365)" style="fill: #72b7b2"/>
   </g>
   <g id="patch_24">
    <path d="M 754.983152 384.212286
L 809.43323 384.212286
L 809.43323 382.801279
L 754.983152 382.801279
z
" clip-path="url(#p0500667365)" style="fill: #72b7b2"/>
   </g>
   <g id="patch_25">
    <path d="M 830.60826 367.767284
L 885.058338 367.767284
L 885.058338 363.966602
L 830.60826 363.966602
z
" clip-path="url(#p0500667365)" style="fill: #72b7b2"/>
   </g>
   <g id="patch_26">
    <path d="M 906.233369 363.84242
L 960.683447 363.84242
L 960.683447 359.132887
L 906.233369 359.132887
z
" clip-path="url(#p0500667365)" style="fill: #72b7b2"/>
   </g>
   <g id="patch_27">
    <path d="M 74.357178 409.638014
L 128.807256 409.638014
L 128.807256 403.422439
L 74.357178 403.422439
z
" clip-path="url(#p0500667365)" style="fill: #f58518"/>
   </g>
   <g id="patch_28">
    <path d="M 149.982287 410.142664
L 204.432365 410.142664
L 204.432365 401.61622
L 149.982287 401.61622
z
" clip-path="url(#p0500667365)" style="fill: #f58518"/>
   </g>
   <g id="patch_29">
    <path d="M 225.607395 408.869348
L 280.057473 408.869348
L 280.057473 393.797066
L 225.607395 393.797066
z
" clip-path="url(#p0500667365)" style="fill: #f58518"/>
   </g>
   <g id="patch_30">
    <path d="M 301.232503 409.760767
L 355.682581 409.760767
L 355.682581 387.542522
L 301.232503 387.542522
z
" clip-path="url(#p0500667365)" style="fill: #f58518"/>
   </g>
   <g id="patch_31">
    <path d="M 376.857611 406.44352
L 431.307689 406.44352
L 431.307689 377.552788
L 376.857611 377.552788
z
" clip-path="url(#p0500667365)" style="fill: #f58518"/>
   </g>
   <g id="patch_32">
    <path d="M 452.482719 404.714265
L 506.932797 404.714265
L 506.932797 369.875872
L 452.482719 369.875872
z
" clip-path="url(#p0500667365)" style="fill: #f58518"/>
   </g>
   <g id="patch_33">
    <path d="M 528.107828 405.215993
L 582.557906 405.215993
L 582.557906 369.040471
L 528.107828 369.040471
z
" clip-path="url(#p0500667365)" style="fill: #f58518"/>
   </g>
   <g id="patch_34">
    <path d="M 603.732936 402.347379
L 658.183014 402.347379
L 658.183014 356.478775
L 603.732936 356.478775
z
" clip-path="url(#p0500667365)" style="fill: #f58518"/>
   </g>
   <g id="patch_35">
    <path d="M 679.358044 404.307769
L 733.808122 404.307769
L 733.808122 339.289009
L 679.358044 339.289009
z
" clip-path="url(#p0500667365)" style="fill: #f58518"/>
   </g>
   <g id="patch_36">
    <path d="M 754.983152 382.801279
L 809.43323 382.801279
L 809.43323 314.431581
L 754.983152 314.431581
z
" clip-path="url(#p0500667365)" style="fill: #f58518"/>
   </g>
   <g id="patch_37">
    <path d="M 830.60826 363.966602
L 885.058338 363.966602
L 885.058338 199.006736
L 830.60826 199.006736
z
" clip-path="url(#p0500667365)" style="fill: #f58518"/>
   </g>
   <g id="patch_38">
    <path d="M 906.233369 359.132887
L 960.683447 359.132887
L 960.683447 165.450627
L 906.233369 165.450627
z
" clip-path="url(#p0500667365)" style="fill: #f58518"/>
   </g>
   <g id="patch_39">
    <path d="M 74.357178 403.422439
L 128.807256 403.422439
L 128.807256 398.018721
L 74.357178 398.018721
z
" clip-path="url(#p0500667365)" style="fill: #54a24b"/>
   </g>
   <g id="patch_40">
    <path d="M 149.982287 401.61622
L 204.432365 401.61622
L 204.432365 396.174183
L 149.982287 396.174183
z
" clip-path="url(#p0500667365)" style="fill: #54a24b"/>
   </g>
   <g id="patch_41">
    <path d="M 225.607395 393.797066
L 280.057473 393.797066
L 280.057473 384.798122
L 225.607395 384.798122
z
" clip-path="url(#p0500667365)" style="fill: #54a24b"/>
   </g>
   <g id="patch_42">
    <path d="M 301.232503 387.542522
L 355.682581 387.542522
L 355.682581 376.356436
L 301.232503 376.356436
z
" clip-path="url(#p0500667365)" style="fill: #54a24b"/>
   </g>
   <g id="patch_43">
    <path d="M 376.857611 377.552788
L 431.307689 377.552788
L 431.307689 360.238808
L 376.857611 360.238808
z
" clip-path="url(#p0500667365)" style="fill: #54a24b"/>
   </g>
   <g id="patch_44">
    <path d="M 452.482719 369.875872
L 506.932797 369.875872
L 506.932797 349.179372
L 452.482719 349.179372
z
" clip-path="url(#p0500667365)" style="fill: #54a24b"/>
   </g>
   <g id="patch_45">
    <path d="M 528.107828 369.040471
L 582.557906 369.040471
L 582.557906 348.296721
L 528.107828 348.296721
z
" clip-path="url(#p0500667365)" style="fill: #54a24b"/>
   </g>
   <g id="patch_46">
    <path d="M 603.732936 356.478775
L 658.183014 356.478775
L 658.183014 331.733871
L 603.732936 331.733871
z
" clip-path="url(#p0500667365)" style="fill: #54a24b"/>
   </g>
   <g id="patch_47">
    <path d="M 679.358044 339.289009
L 733.808122 339.289009
L 733.808122 309.365595
L 679.358044 309.365595
z
" clip-path="url(#p0500667365)" style="fill: #54a24b"/>
   </g>
   <g id="patch_48">
    <path d="M 754.983152 314.431581
L 809.43323 314.431581
L 809.43323 264.63554
L 754.983152 264.63554
z
" clip-path="url(#p0500667365)" style="fill: #54a24b"/>
   </g>
   <g id="patch_49">
    <path d="M 830.60826 199.006736
L 885.058338 199.006736
L 885.058338 96.623324
L 830.60826 96.623324
z
" clip-path="url(#p0500667365)" style="fill: #54a24b"/>
   </g>
   <g id="patch_50">
    <path d="M 906.233369 165.450627
L 960.683447 165.450627
L 960.683447 56.945695
L 906.233369 56.945695
z
" clip-path="url(#p0500667365)" style="fill: #54a24b"/>
   </g>
   <g id="patch_51">
    <path d="M 74.357178 398.018721
L 128.807256 398.018721
L 128.807256 396.843153
L 74.357178 396.843153
z
" clip-path="url(#p0500667365)" style="fill: #b279a2"/>
   </g>
   <g id="patch_52">
    <path d="M 149.982287 396.174183
L 204.432365 396.174183
L 204.432365 394.993418
L 149.982287 394.993418
z
" clip-path="url(#p0500667365)" style="fill: #b279a2"/>
   </g>
   <g id="patch_53">
    <path d="M 225.607395 384.798122
L 280.057473 384.798122
L 280.057473 383.579363
L 225.607395 383.579363
z
" clip-path="url(#p0500667365)" style="fill: #b279a2"/>
   </g>
   <g id="patch_54">
    <path d="M 301.232503 376.356436
L 355.682581 376.356436
L 355.682581 375.183466
L 301.232503 375.183466
z
" clip-path="url(#p0500667365)" style="fill: #b279a2"/>
   </g>
   <g id="patch_55">
    <path d="M 376.857611 360.238808
L 431.307689 360.238808
L 431.307689 358.986438
L 376.857611 358.986438
z
" clip-path="url(#p0500667365)" style="fill: #b279a2"/>
   </g>
   <g id="patch_56">
    <path d="M 452.482719 349.179372
L 506.932797 349.179372
L 506.932797 347.90703
L 452.482719 347.90703
z
" clip-path="url(#p0500667365)" style="fill: #b279a2"/>
   </g>
   <g id="patch_57">
    <path d="M 528.107828 348.296721
L 582.557906 348.296721
L 582.557906 346.779848
L 528.107828 346.779848
z
" clip-path="url(#p0500667365)" style="fill: #b279a2"/>
   </g>
   <g id="patch_58">
    <path d="M 603.732936 331.733871
L 658.183014 331.733871
L 658.183014 330.402588
L 603.732936 330.402588
z
" clip-path="url(#p0500667365)" style="fill: #b279a2"/>
   </g>
   <g id="patch_59">
    <path d="M 679.358044 309.365595
L 733.808122 309.365595
L 733.808122 307.661914
L 679.358044 307.661914
z
" clip-path="url(#p0500667365)" style="fill: #b279a2"/>
   </g>
   <g id="patch_60">
    <path d="M 754.983152 264.63554
L 809.43323 264.63554
L 809.43323 262.891672
L 754.983152 262.891672
z
" clip-path="url(#p0500667365)" style="fill: #b279a2"/>
   </g>
   <g id="patch_61">
    <path d="M 830.60826 96.623324
L 885.058338 96.623324
L 885.058338 93.778181
L 830.60826 93.778181
z
" clip-path="url(#p0500667365)" style="fill: #b279a2"/>
   </g>
   <g id="patch_62">
    <path d="M 906.233369 56.945695
L 960.683447 56.945695
L 960.683447 53.658535
L 906.233369 53.658535
z
" clip-path="url(#p0500667365)" style="fill: #b279a2"/>
   </g>
   <g id="patch_63">
    <path d="M 30.040865 412.736059
L 30.040865 35.704659
" style="fill: none; stroke: #000000; stroke-width: 0.8; stroke-linejoin: miter; stroke-linecap: square"/>
   </g>
   <g id="patch_64">
    <path d="M 1004.99976 412.736059
L 1004.99976 35.704659
" style="fill: none; stroke: #000000; stroke-width: 0.8; stroke-linejoin: miter; stroke-linecap: square"/>
   </g>
   <g id="patch_65">
    <path d="M 30.040865 412.736059
L 1004.99976 412.736059
" style="fill: none; stroke: #000000; stroke-width: 0.8; stroke-linejoin: miter; stroke-linecap: square"/>
   </g>
   <g id="patch_66">
    <path d="M 30.040865 35.704659
L 1004.99976 35.704659
" style="fill: none; stroke: #000000; stroke-width: 0.8; stroke-linejoin: miter; stroke-linecap: square"/>
   </g>
   <g id="text_22">
    <!-- 0.27 -->
    <g transform="translate(92.675967 395.179403) scale(0.08 -0.08)">
     <defs>
      <path id="DejaVuSans-2e" d="M 684 794
L 1344 794
L 1344 0
L 684 0
L 684 794
z
" transform="scale(0.015625)"/>
     </defs>
     <use xlink:href="#DejaVuSans-30"/>
     <use xlink:href="#DejaVuSans-2e" transform="translate(63.623047 0)"/>
     <use xlink:href="#DejaVuSans-32" transform="translate(95.410156 0)"/>
     <use xlink:href="#DejaVuSans-37" transform="translate(159.033203 0)"/>
    </g>
   </g>
   <g id="text_23">
    <!-- 0.30 -->
    <g transform="translate(168.301076 393.329668) scale(0.08 -0.08)">
     <use xlink:href="#DejaVuSans-30"/>
     <use xlink:href="#DejaVuSans-2e" transform="translate(63.623047 0)"/>
     <use xlink:href="#DejaVuSans-33" transform="translate(95.410156 0)"/>
     <use xlink:href="#DejaVuSans-30" transform="translate(159.033203 0)"/>
    </g>
   </g>
   <g id="text_24">
    <!-- 0.50 -->
    <g transform="translate(243.926184 381.915613) scale(0.08 -0.08)">
     <use xlink:href="#DejaVuSans-30"/>
     <use xlink:href="#DejaVuSans-2e" transform="translate(63.623047 0)"/>
     <use xlink:href="#DejaVuSans-35" transform="translate(95.410156 0)"/>
     <use xlink:href="#DejaVuSans-30" transform="translate(159.033203 0)"/>
    </g>
   </g>
   <g id="text_25">
    <!-- 0.64 -->
    <g transform="translate(319.551292 373.519716) scale(0.08 -0.08)">
     <use xlink:href="#DejaVuSans-30"/>
     <use xlink:href="#DejaVuSans-2e" transform="translate(63.623047 0)"/>
     <use xlink:href="#DejaVuSans-36" transform="translate(95.410156 0)"/>
     <use xlink:href="#DejaVuSans-34" transform="translate(159.033203 0)"/>
    </g>
   </g>
   <g id="text_26">
    <!-- 0.92 -->
    <g transform="translate(395.1764 357.322688) scale(0.08 -0.08)">
     <use xlink:href="#DejaVuSans-30"/>
     <use xlink:href="#DejaVuSans-2e" transform="translate(63.623047 0)"/>
     <use xlink:href="#DejaVuSans-39" transform="translate(95.410156 0)"/>
     <use xlink:href="#DejaVuSans-32" transform="translate(159.033203 0)"/>
    </g>
   </g>
   <g id="text_27">
    <!-- 1.11 -->
    <g transform="translate(470.801508 346.24328) scale(0.08 -0.08)">
     <use xlink:href="#DejaVuSans-31"/>
     <use xlink:href="#DejaVuSans-2e" transform="translate(63.623047 0)"/>
     <use xlink:href="#DejaVuSans-31" transform="translate(95.410156 0)"/>
     <use xlink:href="#DejaVuSans-31" transform="translate(159.033203 0)"/>
    </g>
   </g>
   <g id="text_28">
    <!-- 1.13 -->
    <g transform="translate(546.426617 345.116098) scale(0.08 -0.08)">
     <use xlink:href="#DejaVuSans-31"/>
     <use xlink:href="#DejaVuSans-2e" transform="translate(63.623047 0)"/>
     <use xlink:href="#DejaVuSans-31" transform="translate(95.410156 0)"/>
     <use xlink:href="#DejaVuSans-33" transform="translate(159.033203 0)"/>
    </g>
   </g>
   <g id="text_29">
    <!-- 1.41 -->
    <g transform="translate(622.051725 328.738838) scale(0.08 -0.08)">
     <use xlink:href="#DejaVuSans-31"/>
     <use xlink:href="#DejaVuSans-2e" transform="translate(63.623047 0)"/>
     <use xlink:href="#DejaVuSans-34" transform="translate(95.410156 0)"/>
     <use xlink:href="#DejaVuSans-31" transform="translate(159.033203 0)"/>
    </g>
   </g>
   <g id="text_30">
    <!-- 1.80 -->
    <g transform="translate(697.676833 305.998164) scale(0.08 -0.08)">
     <use xlink:href="#DejaVuSans-31"/>
     <use xlink:href="#DejaVuSans-2e" transform="translate(63.623047 0)"/>
     <use xlink:href="#DejaVuSans-38" transform="translate(95.410156 0)"/>
     <use xlink:href="#DejaVuSans-30" transform="translate(159.033203 0)"/>
    </g>
   </g>
   <g id="text_31">
    <!-- 2.56 -->
    <g transform="translate(773.301941 261.227922) scale(0.08 -0.08)">
     <use xlink:href="#DejaVuSans-32"/>
     <use xlink:href="#DejaVuSans-2e" transform="translate(63.623047 0)"/>
     <use xlink:href="#DejaVuSans-35" transform="translate(95.410156 0)"/>
     <use xlink:href="#DejaVuSans-36" transform="translate(159.033203 0)"/>
    </g>
   </g>
   <g id="text_32">
    <!-- 5.46 -->
    <g transform="translate(848.927049 92.114431) scale(0.08 -0.08)">
     <use xlink:href="#DejaVuSans-35"/>
     <use xlink:href="#DejaVuSans-2e" transform="translate(63.623047 0)"/>
     <use xlink:href="#DejaVuSans-34" transform="translate(95.410156 0)"/>
     <use xlink:href="#DejaVuSans-36" transform="translate(159.033203 0)"/>
    </g>
   </g>
   <g id="text_33">
    <!-- 6.14 -->
    <g transform="translate(924.552158 51.994785) scale(0.08 -0.08)">
     <use xlink:href="#DejaVuSans-36"/>
     <use xlink:href="#DejaVuSans-2e" transform="translate(63.623047 0)"/>
     <use xlink:href="#DejaVuSans-31" transform="translate(95.410156 0)"/>
     <use xlink:href="#DejaVuSans-34" transform="translate(159.033203 0)"/>
    </g>
   </g>
   <g id="text_34">
    <!-- Standard Newton Iteration Operator Time -->
    <g transform="translate(392.694063 29.704659) scale(0.12 -0.12)">
     <defs>
      <path id="DejaVuSans-53" d="M 3425 4513
L 3425 3897
Q 3066 4069 2747 4153
Q 2428 4238 2131 4238
Q 1616 4238 1336 4038
Q 1056 3838 1056 3469
Q 1056 3159 1242 3001
Q 1428 2844 1947 2747
L 2328 2669
Q 3034 2534 3370 2195
Q 3706 1856 3706 1288
Q 3706 609 3251 259
Q 2797 -91 1919 -91
Q 1588 -91 1214 -16
Q 841 59 441 206
L 441 856
Q 825 641 1194 531
Q 1563 422 1919 422
Q 2459 422 2753 634
Q 3047 847 3047 1241
Q 3047 1584 2836 1778
Q 2625 1972 2144 2069
L 1759 2144
Q 1053 2284 737 2584
Q 422 2884 422 3419
Q 422 4038 858 4394
Q 1294 4750 2059 4750
Q 2388 4750 2728 4690
Q 3069 4631 3425 4513
z
" transform="scale(0.015625)"/>
      <path id="DejaVuSans-64" d="M 2906 2969
L 2906 4863
L 3481 4863
L 3481 0
L 2906 0
L 2906 525
Q 2725 213 2448 61
Q 2172 -91 1784 -91
Q 1150 -91 751 415
Q 353 922 353 1747
Q 353 2572 751 3078
Q 1150 3584 1784 3584
Q 2172 3584 2448 3432
Q 2725 3281 2906 2969
z
M 947 1747
Q 947 1113 1208 752
Q 1469 391 1925 391
Q 2381 391 2643 752
Q 2906 1113 2906 1747
Q 2906 2381 2643 2742
Q 2381 3103 1925 3103
Q 1469 3103 1208 2742
Q 947 2381 947 1747
z
" transform="scale(0.015625)"/>
      <path id="DejaVuSans-49" d="M 628 4666
L 1259 4666
L 1259 0
L 628 0
L 628 4666
z
" transform="scale(0.015625)"/>
      <path id="DejaVuSans-4f" d="M 2522 4238
Q 1834 4238 1429 3725
Q 1025 3213 1025 2328
Q 1025 1447 1429 934
Q 1834 422 2522 422
Q 3209 422 3611 934
Q 4013 1447 4013 2328
Q 4013 3213 3611 3725
Q 3209 4238 2522 4238
z
M 2522 4750
Q 3503 4750 4090 4092
Q 4678 3434 4678 2328
Q 4678 1225 4090 567
Q 3503 -91 2522 -91
Q 1538 -91 948 565
Q 359 1222 359 2328
Q 359 3434 948 4092
Q 1538 4750 2522 4750
z
" transform="scale(0.015625)"/>
     </defs>
     <use xlink:href="#DejaVuSans-53"/>
     <use xlink:href="#DejaVuSans-74" transform="translate(63.476562 0)"/>
     <use xlink:href="#DejaVuSans-61" transform="translate(102.685547 0)"/>
     <use xlink:href="#DejaVuSans-6e" transform="translate(163.964844 0)"/>
     <use xlink:href="#DejaVuSans-64" transform="translate(227.34375 0)"/>
     <use xlink:href="#DejaVuSans-61" transform="translate(290.820312 0)"/>
     <use xlink:href="#DejaVuSans-72" transform="translate(352.099609 0)"/>
     <use xlink:href="#DejaVuSans-64" transform="translate(391.462891 0)"/>
     <use xlink:href="#DejaVuSans-20" transform="translate(454.939453 0)"/>
     <use xlink:href="#DejaVuSans-4e" transform="translate(486.726562 0)"/>
     <use xlink:href="#DejaVuSans-65" transform="translate(561.53125 0)"/>
     <use xlink:href="#DejaVuSans-77" transform="translate(623.054688 0)"/>
     <use xlink:href="#DejaVuSans-74" transform="translate(704.841797 0)"/>
     <use xlink:href="#DejaVuSans-6f" transform="translate(744.050781 0)"/>
     <use xlink:href="#DejaVuSans-6e" transform="translate(805.232422 0)"/>
     <use xlink:href="#DejaVuSans-20" transform="translate(868.611328 0)"/>
     <use xlink:href="#DejaVuSans-49" transform="translate(900.398438 0)"/>
     <use xlink:href="#DejaVuSans-74" transform="translate(929.890625 0)"/>
     <use xlink:href="#DejaVuSans-65" transform="translate(969.099609 0)"/>
     <use xlink:href="#DejaVuSans-72" transform="translate(1030.623047 0)"/>
     <use xlink:href="#DejaVuSans-61" transform="translate(1071.736328 0)"/>
     <use xlink:href="#DejaVuSans-74" transform="translate(1133.015625 0)"/>
     <use xlink:href="#DejaVuSans-69" transform="translate(1172.224609 0)"/>
     <use xlink:href="#DejaVuSans-6f" transform="translate(1200.007812 0)"/>
     <use xlink:href="#DejaVuSans-6e" transform="translate(1261.189453 0)"/>
     <use xlink:href="#DejaVuSans-20" transform="translate(1324.568359 0)"/>
     <use xlink:href="#DejaVuSans-4f" transform="translate(1356.355469 0)"/>
     <use xlink:href="#DejaVuSans-70" transform="translate(1435.066406 0)"/>
     <use xlink:href="#DejaVuSans-65" transform="translate(1498.542969 0)"/>
     <use xlink:href="#DejaVuSans-72" transform="translate(1560.066406 0)"/>
     <use xlink:href="#DejaVuSans-61" transform="translate(1601.179688 0)"/>
     <use xlink:href="#DejaVuSans-74" transform="translate(1662.458984 0)"/>
     <use xlink:href="#DejaVuSans-6f" transform="translate(1701.667969 0)"/>
     <use xlink:href="#DejaVuSans-72" transform="translate(1762.849609 0)"/>
     <use xlink:href="#DejaVuSans-20" transform="translate(1803.962891 0)"/>
     <use xlink:href="#DejaVuSans-54" transform="translate(1835.75 0)"/>
     <use xlink:href="#DejaVuSans-69" transform="translate(1893.708984 0)"/>
     <use xlink:href="#DejaVuSans-6d" transform="translate(1921.492188 0)"/>
     <use xlink:href="#DejaVuSans-65" transform="translate(2018.904297 0)"/>
    </g>
   </g>
   <g id="legend_1">
    <g id="patch_67">
     <path d="M 288.236719 14.599957
L 308.236719 14.599957
L 308.236719 7.599957
L 288.236719 7.599957
z
" style="fill: #4c78a8"/>
    </g>
    <g id="text_35">
     <!-- Mismatch -->
     <g transform="translate(316.236719 14.599957) scale(0.1 -0.1)">
      <defs>
       <path id="DejaVuSans-4d" d="M 628 4666
L 1569 4666
L 2759 1491
L 3956 4666
L 4897 4666
L 4897 0
L 4281 0
L 4281 4097
L 3078 897
L 2444 897
L 1241 4097
L 1241 0
L 628 0
L 628 4666
z
" transform="scale(0.015625)"/>
       <path id="DejaVuSans-63" d="M 3122 3366
L 3122 2828
Q 2878 2963 2633 3030
Q 2388 3097 2138 3097
Q 1578 3097 1268 2742
Q 959 2388 959 1747
Q 959 1106 1268 751
Q 1578 397 2138 397
Q 2388 397 2633 464
Q 2878 531 3122 666
L 3122 134
Q 2881 22 2623 -34
Q 2366 -91 2075 -91
Q 1284 -91 818 406
Q 353 903 353 1747
Q 353 2603 823 3093
Q 1294 3584 2113 3584
Q 2378 3584 2631 3529
Q 2884 3475 3122 3366
z
" transform="scale(0.015625)"/>
       <path id="DejaVuSans-68" d="M 3513 2113
L 3513 0
L 2938 0
L 2938 2094
Q 2938 2591 2744 2837
Q 2550 3084 2163 3084
Q 1697 3084 1428 2787
Q 1159 2491 1159 1978
L 1159 0
L 581 0
L 581 4863
L 1159 4863
L 1159 2956
Q 1366 3272 1645 3428
Q 1925 3584 2291 3584
Q 2894 3584 3203 3211
Q 3513 2838 3513 2113
z
" transform="scale(0.015625)"/>
      </defs>
      <use xlink:href="#DejaVuSans-4d"/>
      <use xlink:href="#DejaVuSans-69" transform="translate(86.279297 0)"/>
      <use xlink:href="#DejaVuSans-73" transform="translate(114.0625 0)"/>
      <use xlink:href="#DejaVuSans-6d" transform="translate(166.162109 0)"/>
      <use xlink:href="#DejaVuSans-61" transform="translate(263.574219 0)"/>
      <use xlink:href="#DejaVuSans-74" transform="translate(324.853516 0)"/>
      <use xlink:href="#DejaVuSans-63" transform="translate(364.0625 0)"/>
      <use xlink:href="#DejaVuSans-68" transform="translate(419.042969 0)"/>
     </g>
    </g>
    <g id="patch_68">
     <path d="M 384.477344 14.599957
L 404.477344 14.599957
L 404.477344 7.599957
L 384.477344 7.599957
z
" style="fill: #72b7b2"/>
    </g>
    <g id="text_36">
     <!-- Jacobian -->
     <g transform="translate(412.477344 14.599957) scale(0.1 -0.1)">
      <defs>
       <path id="DejaVuSans-4a" d="M 628 4666
L 1259 4666
L 1259 325
Q 1259 -519 939 -900
Q 619 -1281 -91 -1281
L -331 -1281
L -331 -750
L -134 -750
Q 284 -750 456 -515
Q 628 -281 628 325
L 628 4666
z
" transform="scale(0.015625)"/>
       <path id="DejaVuSans-62" d="M 3116 1747
Q 3116 2381 2855 2742
Q 2594 3103 2138 3103
Q 1681 3103 1420 2742
Q 1159 2381 1159 1747
Q 1159 1113 1420 752
Q 1681 391 2138 391
Q 2594 391 2855 752
Q 3116 1113 3116 1747
z
M 1159 2969
Q 1341 3281 1617 3432
Q 1894 3584 2278 3584
Q 2916 3584 3314 3078
Q 3713 2572 3713 1747
Q 3713 922 3314 415
Q 2916 -91 2278 -91
Q 1894 -91 1617 61
Q 1341 213 1159 525
L 1159 0
L 581 0
L 581 4863
L 1159 4863
L 1159 2969
z
" transform="scale(0.015625)"/>
      </defs>
      <use xlink:href="#DejaVuSans-4a"/>
      <use xlink:href="#DejaVuSans-61" transform="translate(29.492188 0)"/>
      <use xlink:href="#DejaVuSans-63" transform="translate(90.771484 0)"/>
      <use xlink:href="#DejaVuSans-6f" transform="translate(145.751953 0)"/>
      <use xlink:href="#DejaVuSans-62" transform="translate(206.933594 0)"/>
      <use xlink:href="#DejaVuSans-69" transform="translate(270.410156 0)"/>
      <use xlink:href="#DejaVuSans-61" transform="translate(298.193359 0)"/>
      <use xlink:href="#DejaVuSans-6e" transform="translate(359.472656 0)"/>
     </g>
    </g>
    <g id="patch_69">
     <path d="M 474.764844 14.599957
L 494.764844 14.599957
L 494.764844 7.599957
L 474.764844 7.599957
z
" style="fill: #f58518"/>
    </g>
    <g id="text_37">
     <!-- Factorize -->
     <g transform="translate(502.764844 14.599957) scale(0.1 -0.1)">
      <defs>
       <path id="DejaVuSans-46" d="M 628 4666
L 3309 4666
L 3309 4134
L 1259 4134
L 1259 2759
L 3109 2759
L 3109 2228
L 1259 2228
L 1259 0
L 628 0
L 628 4666
z
" transform="scale(0.015625)"/>
       <path id="DejaVuSans-7a" d="M 353 3500
L 3084 3500
L 3084 2975
L 922 459
L 3084 459
L 3084 0
L 275 0
L 275 525
L 2438 3041
L 353 3041
L 353 3500
z
" transform="scale(0.015625)"/>
      </defs>
      <use xlink:href="#DejaVuSans-46"/>
      <use xlink:href="#DejaVuSans-61" transform="translate(48.394531 0)"/>
      <use xlink:href="#DejaVuSans-63" transform="translate(109.673828 0)"/>
      <use xlink:href="#DejaVuSans-74" transform="translate(164.654297 0)"/>
      <use xlink:href="#DejaVuSans-6f" transform="translate(203.863281 0)"/>
      <use xlink:href="#DejaVuSans-72" transform="translate(265.044922 0)"/>
      <use xlink:href="#DejaVuSans-69" transform="translate(306.158203 0)"/>
      <use xlink:href="#DejaVuSans-7a" transform="translate(333.941406 0)"/>
      <use xlink:href="#DejaVuSans-65" transform="translate(386.431641 0)"/>
     </g>
    </g>
    <g id="patch_70">
     <path d="M 567.560156 14.599957
L 587.560156 14.599957
L 587.560156 7.599957
L 567.560156 7.599957
z
" style="fill: #54a24b"/>
    </g>
    <g id="text_38">
     <!-- Solve -->
     <g transform="translate(595.560156 14.599957) scale(0.1 -0.1)">
      <defs>
       <path id="DejaVuSans-76" d="M 191 3500
L 800 3500
L 1894 563
L 2988 3500
L 3597 3500
L 2284 0
L 1503 0
L 191 3500
z
" transform="scale(0.015625)"/>
      </defs>
      <use xlink:href="#DejaVuSans-53"/>
      <use xlink:href="#DejaVuSans-6f" transform="translate(63.476562 0)"/>
      <use xlink:href="#DejaVuSans-6c" transform="translate(124.658203 0)"/>
      <use xlink:href="#DejaVuSans-76" transform="translate(152.441406 0)"/>
      <use xlink:href="#DejaVuSans-65" transform="translate(211.621094 0)"/>
     </g>
    </g>
    <g id="patch_71">
     <path d="M 642.877344 14.599957
L 662.877344 14.599957
L 662.877344 7.599957
L 642.877344 7.599957
z
" style="fill: #b279a2"/>
    </g>
    <g id="text_39">
     <!-- Voltage update -->
     <g transform="translate(670.877344 14.599957) scale(0.1 -0.1)">
      <defs>
       <path id="DejaVuSans-56" d="M 1831 0
L 50 4666
L 709 4666
L 2188 738
L 3669 4666
L 4325 4666
L 2547 0
L 1831 0
z
" transform="scale(0.015625)"/>
       <path id="DejaVuSans-67" d="M 2906 1791
Q 2906 2416 2648 2759
Q 2391 3103 1925 3103
Q 1463 3103 1205 2759
Q 947 2416 947 1791
Q 947 1169 1205 825
Q 1463 481 1925 481
Q 2391 481 2648 825
Q 2906 1169 2906 1791
z
M 3481 434
Q 3481 -459 3084 -895
Q 2688 -1331 1869 -1331
Q 1566 -1331 1297 -1286
Q 1028 -1241 775 -1147
L 775 -588
Q 1028 -725 1275 -790
Q 1522 -856 1778 -856
Q 2344 -856 2625 -561
Q 2906 -266 2906 331
L 2906 616
Q 2728 306 2450 153
Q 2172 0 1784 0
Q 1141 0 747 490
Q 353 981 353 1791
Q 353 2603 747 3093
Q 1141 3584 1784 3584
Q 2172 3584 2450 3431
Q 2728 3278 2906 2969
L 2906 3500
L 3481 3500
L 3481 434
z
" transform="scale(0.015625)"/>
      </defs>
      <use xlink:href="#DejaVuSans-56"/>
      <use xlink:href="#DejaVuSans-6f" transform="translate(60.658203 0)"/>
      <use xlink:href="#DejaVuSans-6c" transform="translate(121.839844 0)"/>
      <use xlink:href="#DejaVuSans-74" transform="translate(149.623047 0)"/>
      <use xlink:href="#DejaVuSans-61" transform="translate(188.832031 0)"/>
      <use xlink:href="#DejaVuSans-67" transform="translate(250.111328 0)"/>
      <use xlink:href="#DejaVuSans-65" transform="translate(313.587891 0)"/>
      <use xlink:href="#DejaVuSans-20" transform="translate(375.111328 0)"/>
      <use xlink:href="#DejaVuSans-75" transform="translate(406.898438 0)"/>
      <use xlink:href="#DejaVuSans-70" transform="translate(470.277344 0)"/>
      <use xlink:href="#DejaVuSans-64" transform="translate(533.753906 0)"/>
      <use xlink:href="#DejaVuSans-61" transform="translate(597.230469 0)"/>
      <use xlink:href="#DejaVuSans-74" transform="translate(658.509766 0)"/>
      <use xlink:href="#DejaVuSans-65" transform="translate(697.71875 0)"/>
     </g>
    </g>
   </g>
  </g>
 </g>
 <defs>
  <clipPath id="p0500667365">
   <rect x="30.040865" y="35.704659" width="974.958895" height="377.0314"/>
  </clipPath>
 </defs>
</svg>
