<svg xmlns="http://www.w3.org/2000/svg" width="1180" height="640" viewBox="0 0 1180 640">
<rect width="100%" height="100%" fill="#ffffff"/>
<style>text { font-family: Arial, Helvetica, sans-serif; }</style>
<text x="590" y="38" text-anchor="middle" font-size="24" font-weight="700">case8387pegase front-size histogram</text>
<text x="590" y="62" text-anchor="middle" font-size="13" fill="#555">single-stream plan, P=7431 fronts; small and mid use separate linear y-scales</text>
<text x="344.0" y="86" text-anchor="middle" font-size="18" font-weight="700">small: fsz 1-32, 4-wide bins</text>
<line x1="64" y1="478.0" x2="624" y2="478.0" stroke="#d9dde2" stroke-width="1"/>
<text x="54" y="482.0" text-anchor="end" font-size="11" fill="#555">0</text>
<line x1="64" y1="406.0" x2="624" y2="406.0" stroke="#d9dde2" stroke-width="1"/>
<text x="54" y="410.0" text-anchor="end" font-size="11" fill="#555">1000</text>
<line x1="64" y1="334.0" x2="624" y2="334.0" stroke="#d9dde2" stroke-width="1"/>
<text x="54" y="338.0" text-anchor="end" font-size="11" fill="#555">2000</text>
<line x1="64" y1="262.0" x2="624" y2="262.0" stroke="#d9dde2" stroke-width="1"/>
<text x="54" y="266.0" text-anchor="end" font-size="11" fill="#555">3000</text>
<line x1="64" y1="190.0" x2="624" y2="190.0" stroke="#d9dde2" stroke-width="1"/>
<text x="54" y="194.0" text-anchor="end" font-size="11" fill="#555">4000</text>
<line x1="64" y1="118.0" x2="624" y2="118.0" stroke="#d9dde2" stroke-width="1"/>
<text x="54" y="122.0" text-anchor="end" font-size="11" fill="#555">5000</text>
<line x1="64" y1="118" x2="64" y2="478" stroke="#2f3437" stroke-width="1.2"/>
<line x1="64" y1="478" x2="624" y2="478" stroke="#2f3437" stroke-width="1.2"/>
<rect x="74.0" y="319.0" width="58.8" height="159.0" fill="#2f72b7"/>
<text x="103.4" y="313.0" text-anchor="middle" font-size="11" fill="#222">2208</text>
<text x="103.4" y="497" text-anchor="end" transform="rotate(-38 103.4,497)" font-size="12" fill="#333">1-4</text>
<rect x="142.8" y="170.6" width="58.8" height="307.4" fill="#2f72b7"/>
<text x="172.1" y="164.6" text-anchor="middle" font-size="11" fill="#222">4269</text>
<text x="172.1" y="497" text-anchor="end" transform="rotate(-38 172.1,497)" font-size="12" fill="#333">5-8</text>
<rect x="211.5" y="443.1" width="58.8" height="34.9" fill="#2f72b7"/>
<text x="240.9" y="437.1" text-anchor="middle" font-size="11" fill="#222">485</text>
<text x="240.9" y="497" text-anchor="end" transform="rotate(-38 240.9,497)" font-size="12" fill="#333">9-12</text>
<rect x="280.2" y="465.3" width="58.8" height="12.7" fill="#2f72b7"/>
<text x="309.6" y="459.3" text-anchor="middle" font-size="11" fill="#222">176</text>
<text x="309.6" y="497" text-anchor="end" transform="rotate(-38 309.6,497)" font-size="12" fill="#333">13-16</text>
<rect x="349.0" y="470.2" width="58.8" height="7.8" fill="#2f72b7"/>
<text x="378.4" y="464.2" text-anchor="middle" font-size="11" fill="#222">108</text>
<text x="378.4" y="497" text-anchor="end" transform="rotate(-38 378.4,497)" font-size="12" fill="#333">17-20</text>
<rect x="417.8" y="473.7" width="58.8" height="4.3" fill="#2f72b7"/>
<text x="447.1" y="467.7" text-anchor="middle" font-size="11" fill="#222">60</text>
<text x="447.1" y="497" text-anchor="end" transform="rotate(-38 447.1,497)" font-size="12" fill="#333">21-24</text>
<rect x="486.5" y="474.5" width="58.8" height="3.5" fill="#2f72b7"/>
<text x="515.9" y="468.5" text-anchor="middle" font-size="11" fill="#222">49</text>
<text x="515.9" y="497" text-anchor="end" transform="rotate(-38 515.9,497)" font-size="12" fill="#333">25-28</text>
<rect x="555.2" y="476.1" width="58.8" height="1.9" fill="#2f72b7"/>
<text x="584.6" y="470.1" text-anchor="middle" font-size="11" fill="#222">26</text>
<text x="584.6" y="497" text-anchor="end" transform="rotate(-38 584.6,497)" font-size="12" fill="#333">29-32</text>
<text x="911.0" y="86" text-anchor="middle" font-size="18" font-weight="700">mid: fsz 33-128, finer bins</text>
<line x1="696" y1="478.0" x2="1126" y2="478.0" stroke="#d9dde2" stroke-width="1"/>
<text x="686" y="482.0" text-anchor="end" font-size="11" fill="#555">0</text>
<line x1="696" y1="388.0" x2="1126" y2="388.0" stroke="#d9dde2" stroke-width="1"/>
<text x="686" y="392.0" text-anchor="end" font-size="11" fill="#555">5</text>
<line x1="696" y1="298.0" x2="1126" y2="298.0" stroke="#d9dde2" stroke-width="1"/>
<text x="686" y="302.0" text-anchor="end" font-size="11" fill="#555">10</text>
<line x1="696" y1="208.0" x2="1126" y2="208.0" stroke="#d9dde2" stroke-width="1"/>
<text x="686" y="212.0" text-anchor="end" font-size="11" fill="#555">15</text>
<line x1="696" y1="118.0" x2="1126" y2="118.0" stroke="#d9dde2" stroke-width="1"/>
<text x="686" y="122.0" text-anchor="end" font-size="11" fill="#555">20</text>
<line x1="696" y1="118" x2="696" y2="478" stroke="#2f3437" stroke-width="1.2"/>
<line x1="696" y1="478" x2="1126" y2="478" stroke="#2f3437" stroke-width="1.2"/>
<rect x="706.0" y="118.0" width="36.7" height="360.0" fill="#3b8f5a"/>
<text x="724.3" y="112.0" text-anchor="middle" font-size="11" fill="#222">20</text>
<text x="724.3" y="497" text-anchor="end" transform="rotate(-38 724.3,497)" font-size="12" fill="#333">33-40</text>
<rect x="752.7" y="244.0" width="36.7" height="234.0" fill="#3b8f5a"/>
<text x="771.0" y="238.0" text-anchor="middle" font-size="11" fill="#222">13</text>
<text x="771.0" y="497" text-anchor="end" transform="rotate(-38 771.0,497)" font-size="12" fill="#333">41-48</text>
<rect x="799.3" y="334.0" width="36.7" height="144.0" fill="#3b8f5a"/>
<text x="817.7" y="328.0" text-anchor="middle" font-size="11" fill="#222">8</text>
<text x="817.7" y="497" text-anchor="end" transform="rotate(-38 817.7,497)" font-size="12" fill="#333">49-56</text>
<rect x="846.0" y="370.0" width="36.7" height="108.0" fill="#3b8f5a"/>
<text x="864.3" y="364.0" text-anchor="middle" font-size="11" fill="#222">6</text>
<text x="864.3" y="497" text-anchor="end" transform="rotate(-38 864.3,497)" font-size="12" fill="#333">57-64</text>
<rect x="892.7" y="442.0" width="36.7" height="36.0" fill="#3b8f5a"/>
<text x="911.0" y="436.0" text-anchor="middle" font-size="11" fill="#222">2</text>
<text x="911.0" y="497" text-anchor="end" transform="rotate(-38 911.0,497)" font-size="12" fill="#333">65-72</text>
<rect x="939.3" y="460.0" width="36.7" height="18.0" fill="#3b8f5a"/>
<text x="957.7" y="454.0" text-anchor="middle" font-size="11" fill="#222">1</text>
<text x="957.7" y="497" text-anchor="end" transform="rotate(-38 957.7,497)" font-size="12" fill="#333">73-80</text>
<rect x="986.0" y="478.0" width="36.7" height="0.0" fill="#3b8f5a"/>
<text x="1004.3" y="472.0" text-anchor="middle" font-size="11" fill="#222">0</text>
<text x="1004.3" y="497" text-anchor="end" transform="rotate(-38 1004.3,497)" font-size="12" fill="#333">81-96</text>
<rect x="1032.7" y="478.0" width="36.7" height="0.0" fill="#3b8f5a"/>
<text x="1051.0" y="472.0" text-anchor="middle" font-size="11" fill="#222">0</text>
<text x="1051.0" y="497" text-anchor="end" transform="rotate(-38 1051.0,497)" font-size="12" fill="#333">97-112</text>
<rect x="1079.3" y="478.0" width="36.7" height="0.0" fill="#3b8f5a"/>
<text x="1097.7" y="472.0" text-anchor="middle" font-size="11" fill="#222">0</text>
<text x="1097.7" y="497" text-anchor="end" transform="rotate(-38 1097.7,497)" font-size="12" fill="#333">113-128</text>
<rect x="696" y="548" width="430" height="44" fill="#fff5f5" stroke="#b54a4a" stroke-width="1"/>
<text x="708" y="575" font-size="14" fill="#5a2525">big: fsz &gt; 128 count = 0</text>
<rect x="64" y="548" width="560" height="44" fill="#f7fbff" stroke="#a7bfd8" stroke-width="1"/>
<text x="76" y="575" font-size="14" fill="#26384a">small total = 7381 (99.33%), mid total = 50 (0.67%)</text>
</svg>
