<?xml version="1.0" encoding="utf-8" standalone="no"?>
<!DOCTYPE svg PUBLIC "-//W3C//DTD SVG 1.1//EN"
  "http://www.w3.org/Graphics/SVG/1.1/DTD/svg11.dtd">
<svg xmlns:xlink="http://www.w3.org/1999/xlink" width="1044pt" height="417.6pt" viewBox="0 0 1044 417.6" xmlns="http://www.w3.org/2000/svg" version="1.1">
 <metadata>
  <rdf:RDF xmlns:dc="http://purl.org/dc/elements/1.1/" xmlns:cc="http://creativecommons.org/ns#" xmlns:rdf="http://www.w3.org/1999/02/22-rdf-syntax-ns#">
   <cc:Work>
    <dc:type rdf:resource="http://purl.org/dc/dcmitype/StillImage"/>
    <dc:date>2026-06-08T07:38:11.714283</dc:date>
    <dc:format>image/svg+xml</dc:format>
    <dc:creator>
     <cc:Agent>
      <dc:title>Matplotlib v3.10.9, https://matplotlib.org/</dc:title>
     </cc:Agent>
    </dc:creator>
   </cc:Work>
  </rdf:RDF>
 </metadata>
 <defs>
  <style type="text/css">*{stroke-linejoin: round; stroke-linecap: butt}</style>
 </defs>
 <g id="figure_1">
  <g id="patch_1">
   <path d="M 0 417.6 
L 1044 417.6 
L 1044 0 
L 0 0 
z
" style="fill: #ffffff"/>
  </g>
  <g id="axes_1">
   <g id="patch_2">
    <path d="M 57.482353 375.470588 
L 1033.2 375.470588 
L 1033.2 27.811765 
L 57.482353 27.811765 
z
" style="fill: #ffffff"/>
   </g>
   <g id="patch_3">
    <path d="M 101.833155 375.470588 
L 127.358797 375.470588 
L 127.358797 27.811765 
L 101.833155 27.811765 
z
" clip-path="url(#p06ec9b5bc1)" style="fill: #4c78a8"/>
   </g>
   <g id="patch_4">
    <path d="M 133.740207 375.470588 
L 159.265848 375.470588 
L 159.265848 247.301046 
L 133.740207 247.301046 
z
" clip-path="url(#p06ec9b5bc1)" style="fill: #4c78a8"/>
   </g>
   <g id="patch_5">
    <path d="M 165.647259 375.470588 
L 191.1729 375.470588 
L 191.1729 315.579071 
L 165.647259 315.579071 
z
" clip-path="url(#p06ec9b5bc1)" style="fill: #4c78a8"/>
   </g>
   <g id="patch_6">
    <path d="M 197.554311 375.470588 
L 223.079952 375.470588 
L 223.079952 341.416288 
L 197.554311 341.416288 
z
" clip-path="url(#p06ec9b5bc1)" style="fill: #4c78a8"/>
   </g>
   <g id="patch_7">
    <path d="M 229.461363 375.470588 
L 254.987004 375.470588 
L 254.987004 355.139663 
L 229.461363 355.139663 
z
" clip-path="url(#p06ec9b5bc1)" style="fill: #4c78a8"/>
   </g>
   <g id="patch_8">
    <path d="M 261.368415 375.470588 
L 286.894056 375.470588 
L 286.894056 363.017896 
L 261.368415 363.017896 
z
" clip-path="url(#p06ec9b5bc1)" style="fill: #4c78a8"/>
   </g>
   <g id="patch_9">
    <path d="M 293.275466 375.470588 
L 318.801108 375.470588 
L 318.801108 367.253506 
L 293.275466 367.253506 
z
" clip-path="url(#p06ec9b5bc1)" style="fill: #4c78a8"/>
   </g>
   <g id="patch_10">
    <path d="M 325.182518 375.470588 
L 350.70816 375.470588 
L 350.70816 370.811418 
L 325.182518 370.811418 
z
" clip-path="url(#p06ec9b5bc1)" style="fill: #4c78a8"/>
   </g>
   <g id="patch_11">
    <path d="M 357.08957 375.470588 
L 382.615212 375.470588 
L 382.615212 372.675086 
L 357.08957 372.675086 
z
" clip-path="url(#p06ec9b5bc1)" style="fill: #4c78a8"/>
   </g>
   <g id="patch_12">
    <path d="M 388.996622 375.470588 
L 414.522264 375.470588 
L 414.522264 373.691632 
L 388.996622 373.691632 
z
" clip-path="url(#p06ec9b5bc1)" style="fill: #4c78a8"/>
   </g>
   <g id="patch_13">
    <path d="M 420.903674 375.470588 
L 446.429316 375.470588 
L 446.429316 373.861057 
L 420.903674 373.861057 
z
" clip-path="url(#p06ec9b5bc1)" style="fill: #4c78a8"/>
   </g>
   <g id="patch_14">
    <path d="M 452.810726 375.470588 
L 478.336367 375.470588 
L 478.336367 374.36933 
L 452.810726 374.36933 
z
" clip-path="url(#p06ec9b5bc1)" style="fill: #4c78a8"/>
   </g>
   <g id="patch_15">
    <path d="M 484.717778 375.470588 
L 510.243419 375.470588 
L 510.243419 374.708179 
L 484.717778 374.708179 
z
" clip-path="url(#p06ec9b5bc1)" style="fill: #4c78a8"/>
   </g>
   <g id="patch_16">
    <path d="M 516.62483 375.470588 
L 542.150471 375.470588 
L 542.150471 375.047027 
L 516.62483 375.047027 
z
" clip-path="url(#p06ec9b5bc1)" style="fill: #4c78a8"/>
   </g>
   <g id="patch_17">
    <path d="M 548.531882 375.470588 
L 574.057523 375.470588 
L 574.057523 375.131739 
L 548.531882 375.131739 
z
" clip-path="url(#p06ec9b5bc1)" style="fill: #4c78a8"/>
   </g>
   <g id="patch_18">
    <path d="M 580.438934 375.470588 
L 605.964575 375.470588 
L 605.964575 375.216452 
L 580.438934 375.216452 
z
" clip-path="url(#p06ec9b5bc1)" style="fill: #4c78a8"/>
   </g>
   <g id="patch_19">
    <path d="M 612.345985 375.470588 
L 637.871627 375.470588 
L 637.871627 375.301164 
L 612.345985 375.301164 
z
" clip-path="url(#p06ec9b5bc1)" style="fill: #4c78a8"/>
   </g>
   <g id="patch_20">
    <path d="M 644.253037 375.470588 
L 669.778679 375.470588 
L 669.778679 375.301164 
L 644.253037 375.301164 
z
" clip-path="url(#p06ec9b5bc1)" style="fill: #4c78a8"/>
   </g>
   <g id="patch_21">
    <path d="M 676.160089 375.470588 
L 701.685731 375.470588 
L 701.685731 375.385876 
L 676.160089 375.385876 
z
" clip-path="url(#p06ec9b5bc1)" style="fill: #4c78a8"/>
   </g>
   <g id="patch_22">
    <path d="M 708.067141 375.470588 
L 733.592783 375.470588 
L 733.592783 375.470588 
L 708.067141 375.470588 
z
" clip-path="url(#p06ec9b5bc1)" style="fill: #4c78a8"/>
   </g>
   <g id="patch_23">
    <path d="M 739.974193 375.470588 
L 765.499835 375.470588 
L 765.499835 375.470588 
L 739.974193 375.470588 
z
" clip-path="url(#p06ec9b5bc1)" style="fill: #4c78a8"/>
   </g>
   <g id="patch_24">
    <path d="M 771.881245 375.470588 
L 797.406886 375.470588 
L 797.406886 375.470588 
L 771.881245 375.470588 
z
" clip-path="url(#p06ec9b5bc1)" style="fill: #4c78a8"/>
   </g>
   <g id="patch_25">
    <path d="M 803.788297 375.470588 
L 829.313938 375.470588 
L 829.313938 375.470588 
L 803.788297 375.470588 
z
" clip-path="url(#p06ec9b5bc1)" style="fill: #4c78a8"/>
   </g>
   <g id="patch_26">
    <path d="M 835.695349 375.470588 
L 861.22099 375.470588 
L 861.22099 375.470588 
L 835.695349 375.470588 
z
" clip-path="url(#p06ec9b5bc1)" style="fill: #4c78a8"/>
   </g>
   <g id="patch_27">
    <path d="M 867.602401 375.470588 
L 893.128042 375.470588 
L 893.128042 375.385876 
L 867.602401 375.385876 
z
" clip-path="url(#p06ec9b5bc1)" style="fill: #4c78a8"/>
   </g>
   <g id="patch_28">
    <path d="M 899.509453 375.470588 
L 925.035094 375.470588 
L 925.035094 375.385876 
L 899.509453 375.385876 
z
" clip-path="url(#p06ec9b5bc1)" style="fill: #4c78a8"/>
   </g>
   <g id="patch_29">
    <path d="M 931.416504 375.470588 
L 956.942146 375.470588 
L 956.942146 375.385876 
L 931.416504 375.385876 
z
" clip-path="url(#p06ec9b5bc1)" style="fill: #4c78a8"/>
   </g>
   <g id="patch_30">
    <path d="M 963.323556 375.470588 
L 988.849198 375.470588 
L 988.849198 375.385876 
L 963.323556 375.385876 
z
" clip-path="url(#p06ec9b5bc1)" style="fill: #4c78a8"/>
   </g>
   <g id="patch_31">
    <path d="M 101.833155 27.811765 
L 127.358797 27.811765 
L 127.358797 27.811765 
L 101.833155 27.811765 
z
" clip-path="url(#p06ec9b5bc1)" style="fill: #54a24b"/>
   </g>
   <g id="patch_32">
    <path d="M 133.740207 247.301046 
L 159.265848 247.301046 
L 159.265848 247.301046 
L 133.740207 247.301046 
z
" clip-path="url(#p06ec9b5bc1)" style="fill: #54a24b"/>
   </g>
   <g id="patch_33">
    <path d="M 165.647259 315.579071 
L 191.1729 315.579071 
L 191.1729 315.494358 
L 165.647259 315.494358 
z
" clip-path="url(#p06ec9b5bc1)" style="fill: #54a24b"/>
   </g>
   <g id="patch_34">
    <path d="M 197.554311 341.416288 
L 223.079952 341.416288 
L 223.079952 341.331576 
L 197.554311 341.331576 
z
" clip-path="url(#p06ec9b5bc1)" style="fill: #54a24b"/>
   </g>
   <g id="patch_35">
    <path d="M 229.461363 355.139663 
L 254.987004 355.139663 
L 254.987004 355.054951 
L 229.461363 355.054951 
z
" clip-path="url(#p06ec9b5bc1)" style="fill: #54a24b"/>
   </g>
   <g id="patch_36">
    <path d="M 261.368415 363.017896 
L 286.894056 363.017896 
L 286.894056 362.933184 
L 261.368415 362.933184 
z
" clip-path="url(#p06ec9b5bc1)" style="fill: #54a24b"/>
   </g>
   <g id="patch_37">
    <path d="M 293.275466 367.253506 
L 318.801108 367.253506 
L 318.801108 367.084082 
L 293.275466 367.084082 
z
" clip-path="url(#p06ec9b5bc1)" style="fill: #54a24b"/>
   </g>
   <g id="patch_38">
    <path d="M 325.182518 370.811418 
L 350.70816 370.811418 
L 350.70816 370.303145 
L 325.182518 370.303145 
z
" clip-path="url(#p06ec9b5bc1)" style="fill: #54a24b"/>
   </g>
   <g id="patch_39">
    <path d="M 357.08957 372.675086 
L 382.615212 372.675086 
L 382.615212 372.251525 
L 357.08957 372.251525 
z
" clip-path="url(#p06ec9b5bc1)" style="fill: #54a24b"/>
   </g>
   <g id="patch_40">
    <path d="M 388.996622 373.691632 
L 414.522264 373.691632 
L 414.522264 373.098647 
L 388.996622 373.098647 
z
" clip-path="url(#p06ec9b5bc1)" style="fill: #54a24b"/>
   </g>
   <g id="patch_41">
    <path d="M 420.903674 373.861057 
L 446.429316 373.861057 
L 446.429316 373.60692 
L 420.903674 373.60692 
z
" clip-path="url(#p06ec9b5bc1)" style="fill: #54a24b"/>
   </g>
   <g id="patch_42">
    <path d="M 452.810726 374.36933 
L 478.336367 374.36933 
L 478.336367 374.030481 
L 452.810726 374.030481 
z
" clip-path="url(#p06ec9b5bc1)" style="fill: #54a24b"/>
   </g>
   <g id="patch_43">
    <path d="M 484.717778 374.708179 
L 510.243419 374.708179 
L 510.243419 374.454042 
L 484.717778 374.454042 
z
" clip-path="url(#p06ec9b5bc1)" style="fill: #54a24b"/>
   </g>
   <g id="patch_44">
    <path d="M 516.62483 375.047027 
L 542.150471 375.047027 
L 542.150471 374.708179 
L 516.62483 374.708179 
z
" clip-path="url(#p06ec9b5bc1)" style="fill: #54a24b"/>
   </g>
   <g id="patch_45">
    <path d="M 548.531882 375.131739 
L 574.057523 375.131739 
L 574.057523 374.962315 
L 548.531882 374.962315 
z
" clip-path="url(#p06ec9b5bc1)" style="fill: #54a24b"/>
   </g>
   <g id="patch_46">
    <path d="M 580.438934 375.216452 
L 605.964575 375.216452 
L 605.964575 375.131739 
L 580.438934 375.131739 
z
" clip-path="url(#p06ec9b5bc1)" style="fill: #54a24b"/>
   </g>
   <g id="patch_47">
    <path d="M 612.345985 375.301164 
L 637.871627 375.301164 
L 637.871627 375.131739 
L 612.345985 375.131739 
z
" clip-path="url(#p06ec9b5bc1)" style="fill: #54a24b"/>
   </g>
   <g id="patch_48">
    <path d="M 644.253037 375.301164 
L 669.778679 375.301164 
L 669.778679 375.216452 
L 644.253037 375.216452 
z
" clip-path="url(#p06ec9b5bc1)" style="fill: #54a24b"/>
   </g>
   <g id="patch_49">
    <path d="M 676.160089 375.385876 
L 701.685731 375.385876 
L 701.685731 375.301164 
L 676.160089 375.301164 
z
" clip-path="url(#p06ec9b5bc1)" style="fill: #54a24b"/>
   </g>
   <g id="patch_50">
    <path d="M 708.067141 375.470588 
L 733.592783 375.470588 
L 733.592783 375.385876 
L 708.067141 375.385876 
z
" clip-path="url(#p06ec9b5bc1)" style="fill: #54a24b"/>
   </g>
   <g id="patch_51">
    <path d="M 739.974193 375.470588 
L 765.499835 375.470588 
L 765.499835 375.385876 
L 739.974193 375.385876 
z
" clip-path="url(#p06ec9b5bc1)" style="fill: #54a24b"/>
   </g>
   <g id="patch_52">
    <path d="M 771.881245 375.470588 
L 797.406886 375.470588 
L 797.406886 375.385876 
L 771.881245 375.385876 
z
" clip-path="url(#p06ec9b5bc1)" style="fill: #54a24b"/>
   </g>
   <g id="patch_53">
    <path d="M 803.788297 375.470588 
L 829.313938 375.470588 
L 829.313938 375.385876 
L 803.788297 375.385876 
z
" clip-path="url(#p06ec9b5bc1)" style="fill: #54a24b"/>
   </g>
   <g id="patch_54">
    <path d="M 835.695349 375.470588 
L 861.22099 375.470588 
L 861.22099 375.385876 
L 835.695349 375.385876 
z
" clip-path="url(#p06ec9b5bc1)" style="fill: #54a24b"/>
   </g>
   <g id="patch_55">
    <path d="M 867.602401 375.385876 
L 893.128042 375.385876 
L 893.128042 375.385876 
L 867.602401 375.385876 
z
" clip-path="url(#p06ec9b5bc1)" style="fill: #54a24b"/>
   </g>
   <g id="patch_56">
    <path d="M 899.509453 375.385876 
L 925.035094 375.385876 
L 925.035094 375.385876 
L 899.509453 375.385876 
z
" clip-path="url(#p06ec9b5bc1)" style="fill: #54a24b"/>
   </g>
   <g id="patch_57">
    <path d="M 931.416504 375.385876 
L 956.942146 375.385876 
L 956.942146 375.385876 
L 931.416504 375.385876 
z
" clip-path="url(#p06ec9b5bc1)" style="fill: #54a24b"/>
   </g>
   <g id="patch_58">
    <path d="M 963.323556 375.385876 
L 988.849198 375.385876 
L 988.849198 375.385876 
L 963.323556 375.385876 
z
" clip-path="url(#p06ec9b5bc1)" style="fill: #54a24b"/>
   </g>
   <g id="patch_59">
    <path d="M 101.833155 27.811765 
L 127.358797 27.811765 
L 127.358797 27.811765 
L 101.833155 27.811765 
z
" clip-path="url(#p06ec9b5bc1)" style="fill: #e45756"/>
   </g>
   <g id="patch_60">
    <path d="M 133.740207 247.301046 
L 159.265848 247.301046 
L 159.265848 247.301046 
L 133.740207 247.301046 
z
" clip-path="url(#p06ec9b5bc1)" style="fill: #e45756"/>
   </g>
   <g id="patch_61">
    <path d="M 165.647259 315.494358 
L 191.1729 315.494358 
L 191.1729 315.494358 
L 165.647259 315.494358 
z
" clip-path="url(#p06ec9b5bc1)" style="fill: #e45756"/>
   </g>
   <g id="patch_62">
    <path d="M 197.554311 341.331576 
L 223.079952 341.331576 
L 223.079952 341.331576 
L 197.554311 341.331576 
z
" clip-path="url(#p06ec9b5bc1)" style="fill: #e45756"/>
   </g>
   <g id="patch_63">
    <path d="M 229.461363 355.054951 
L 254.987004 355.054951 
L 254.987004 355.054951 
L 229.461363 355.054951 
z
" clip-path="url(#p06ec9b5bc1)" style="fill: #e45756"/>
   </g>
   <g id="patch_64">
    <path d="M 261.368415 362.933184 
L 286.894056 362.933184 
L 286.894056 362.933184 
L 261.368415 362.933184 
z
" clip-path="url(#p06ec9b5bc1)" style="fill: #e45756"/>
   </g>
   <g id="patch_65">
    <path d="M 293.275466 367.084082 
L 318.801108 367.084082 
L 318.801108 367.084082 
L 293.275466 367.084082 
z
" clip-path="url(#p06ec9b5bc1)" style="fill: #e45756"/>
   </g>
   <g id="patch_66">
    <path d="M 325.182518 370.303145 
L 350.70816 370.303145 
L 350.70816 370.303145 
L 325.182518 370.303145 
z
" clip-path="url(#p06ec9b5bc1)" style="fill: #e45756"/>
   </g>
   <g id="patch_67">
    <path d="M 357.08957 372.251525 
L 382.615212 372.251525 
L 382.615212 372.251525 
L 357.08957 372.251525 
z
" clip-path="url(#p06ec9b5bc1)" style="fill: #e45756"/>
   </g>
   <g id="patch_68">
    <path d="M 388.996622 373.098647 
L 414.522264 373.098647 
L 414.522264 373.098647 
L 388.996622 373.098647 
z
" clip-path="url(#p06ec9b5bc1)" style="fill: #e45756"/>
   </g>
   <g id="patch_69">
    <path d="M 420.903674 373.60692 
L 446.429316 373.60692 
L 446.429316 373.60692 
L 420.903674 373.60692 
z
" clip-path="url(#p06ec9b5bc1)" style="fill: #e45756"/>
   </g>
   <g id="patch_70">
    <path d="M 452.810726 374.030481 
L 478.336367 374.030481 
L 478.336367 374.030481 
L 452.810726 374.030481 
z
" clip-path="url(#p06ec9b5bc1)" style="fill: #e45756"/>
   </g>
   <g id="patch_71">
    <path d="M 484.717778 374.454042 
L 510.243419 374.454042 
L 510.243419 374.454042 
L 484.717778 374.454042 
z
" clip-path="url(#p06ec9b5bc1)" style="fill: #e45756"/>
   </g>
   <g id="patch_72">
    <path d="M 516.62483 374.708179 
L 542.150471 374.708179 
L 542.150471 374.708179 
L 516.62483 374.708179 
z
" clip-path="url(#p06ec9b5bc1)" style="fill: #e45756"/>
   </g>
   <g id="patch_73">
    <path d="M 548.531882 374.962315 
L 574.057523 374.962315 
L 574.057523 374.962315 
L 548.531882 374.962315 
z
" clip-path="url(#p06ec9b5bc1)" style="fill: #e45756"/>
   </g>
   <g id="patch_74">
    <path d="M 580.438934 375.131739 
L 605.964575 375.131739 
L 605.964575 375.131739 
L 580.438934 375.131739 
z
" clip-path="url(#p06ec9b5bc1)" style="fill: #e45756"/>
   </g>
   <g id="patch_75">
    <path d="M 612.345985 375.131739 
L 637.871627 375.131739 
L 637.871627 375.131739 
L 612.345985 375.131739 
z
" clip-path="url(#p06ec9b5bc1)" style="fill: #e45756"/>
   </g>
   <g id="patch_76">
    <path d="M 644.253037 375.216452 
L 669.778679 375.216452 
L 669.778679 375.216452 
L 644.253037 375.216452 
z
" clip-path="url(#p06ec9b5bc1)" style="fill: #e45756"/>
   </g>
   <g id="patch_77">
    <path d="M 676.160089 375.301164 
L 701.685731 375.301164 
L 701.685731 375.301164 
L 676.160089 375.301164 
z
" clip-path="url(#p06ec9b5bc1)" style="fill: #e45756"/>
   </g>
   <g id="patch_78">
    <path d="M 708.067141 375.385876 
L 733.592783 375.385876 
L 733.592783 375.385876 
L 708.067141 375.385876 
z
" clip-path="url(#p06ec9b5bc1)" style="fill: #e45756"/>
   </g>
   <g id="patch_79">
    <path d="M 739.974193 375.385876 
L 765.499835 375.385876 
L 765.499835 375.385876 
L 739.974193 375.385876 
z
" clip-path="url(#p06ec9b5bc1)" style="fill: #e45756"/>
   </g>
   <g id="patch_80">
    <path d="M 771.881245 375.385876 
L 797.406886 375.385876 
L 797.406886 375.385876 
L 771.881245 375.385876 
z
" clip-path="url(#p06ec9b5bc1)" style="fill: #e45756"/>
   </g>
   <g id="patch_81">
    <path d="M 803.788297 375.385876 
L 829.313938 375.385876 
L 829.313938 375.385876 
L 803.788297 375.385876 
z
" clip-path="url(#p06ec9b5bc1)" style="fill: #e45756"/>
   </g>
   <g id="patch_82">
    <path d="M 835.695349 375.385876 
L 861.22099 375.385876 
L 861.22099 375.385876 
L 835.695349 375.385876 
z
" clip-path="url(#p06ec9b5bc1)" style="fill: #e45756"/>
   </g>
   <g id="patch_83">
    <path d="M 867.602401 375.385876 
L 893.128042 375.385876 
L 893.128042 375.385876 
L 867.602401 375.385876 
z
" clip-path="url(#p06ec9b5bc1)" style="fill: #e45756"/>
   </g>
   <g id="patch_84">
    <path d="M 899.509453 375.385876 
L 925.035094 375.385876 
L 925.035094 375.385876 
L 899.509453 375.385876 
z
" clip-path="url(#p06ec9b5bc1)" style="fill: #e45756"/>
   </g>
   <g id="patch_85">
    <path d="M 931.416504 375.385876 
L 956.942146 375.385876 
L 956.942146 375.385876 
L 931.416504 375.385876 
z
" clip-path="url(#p06ec9b5bc1)" style="fill: #e45756"/>
   </g>
   <g id="patch_86">
    <path d="M 963.323556 375.385876 
L 988.849198 375.385876 
L 988.849198 375.385876 
L 963.323556 375.385876 
z
" clip-path="url(#p06ec9b5bc1)" style="fill: #e45756"/>
   </g>
   <g id="matplotlib.axis_1">
    <g id="xtick_1">
     <g id="line2d_1">
      <defs>
       <path id="m6caeddaa6a" d="M 0 0 
L 0 3.5 
" style="stroke: #000000; stroke-width: 0.8"/>
      </defs>
      <g>
       <use xlink:href="#m6caeddaa6a" x="114.595976" y="375.470588" style="stroke: #000000; stroke-width: 0.8"/>
      </g>
     </g>
     <g id="text_1">
      <!-- 0 -->
      <g transform="translate(111.414726 390.069026) scale(0.1 -0.1)">
       <defs>
        <path id="DejaVuSans-30" d="M 2034 4250 
Q 1547 4250 1301 3770 
Q 1056 3291 1056 2328 
Q 1056 1369 1301 889 
Q 1547 409 2034 409 
Q 2525 409 2770 889 
Q 3016 1369 3016 2328 
Q 3016 3291 2770 3770 
Q 2525 4250 2034 4250 
z
M 2034 4750 
Q 2819 4750 3233 4129 
Q 3647 3509 3647 2328 
Q 3647 1150 3233 529 
Q 2819 -91 2034 -91 
Q 1250 -91 836 529 
Q 422 1150 422 2328 
Q 422 3509 836 4129 
Q 1250 4750 2034 4750 
z
" transform="scale(0.015625)"/>
       </defs>
       <use xlink:href="#DejaVuSans-30"/>
      </g>
     </g>
    </g>
    <g id="xtick_2">
     <g id="line2d_2">
      <g>
       <use xlink:href="#m6caeddaa6a" x="146.503028" y="375.470588" style="stroke: #000000; stroke-width: 0.8"/>
      </g>
     </g>
     <g id="text_2">
      <!-- 1 -->
      <g transform="translate(143.321778 390.069026) scale(0.1 -0.1)">
       <defs>
        <path id="DejaVuSans-31" d="M 794 531 
L 1825 531 
L 1825 4091 
L 703 3866 
L 703 4441 
L 1819 4666 
L 2450 4666 
L 2450 531 
L 3481 531 
L 3481 0 
L 794 0 
L 794 531 
z
" transform="scale(0.015625)"/>
       </defs>
       <use xlink:href="#DejaVuSans-31"/>
      </g>
     </g>
    </g>
    <g id="xtick_3">
     <g id="line2d_3">
      <g>
       <use xlink:href="#m6caeddaa6a" x="178.41008" y="375.470588" style="stroke: #000000; stroke-width: 0.8"/>
      </g>
     </g>
     <g id="text_3">
      <!-- 2 -->
      <g transform="translate(175.22883 390.069026) scale(0.1 -0.1)">
       <defs>
        <path id="DejaVuSans-32" d="M 1228 531 
L 3431 531 
L 3431 0 
L 469 0 
L 469 531 
Q 828 903 1448 1529 
Q 2069 2156 2228 2338 
Q 2531 2678 2651 2914 
Q 2772 3150 2772 3378 
Q 2772 3750 2511 3984 
Q 2250 4219 1831 4219 
Q 1534 4219 1204 4116 
Q 875 4013 500 3803 
L 500 4441 
Q 881 4594 1212 4672 
Q 1544 4750 1819 4750 
Q 2544 4750 2975 4387 
Q 3406 4025 3406 3419 
Q 3406 3131 3298 2873 
Q 3191 2616 2906 2266 
Q 2828 2175 2409 1742 
Q 1991 1309 1228 531 
z
" transform="scale(0.015625)"/>
       </defs>
       <use xlink:href="#DejaVuSans-32"/>
      </g>
     </g>
    </g>
    <g id="xtick_4">
     <g id="line2d_4">
      <g>
       <use xlink:href="#m6caeddaa6a" x="210.317132" y="375.470588" style="stroke: #000000; stroke-width: 0.8"/>
      </g>
     </g>
     <g id="text_4">
      <!-- 3 -->
      <g transform="translate(207.135882 390.069026) scale(0.1 -0.1)">
       <defs>
        <path id="DejaVuSans-33" d="M 2597 2516 
Q 3050 2419 3304 2112 
Q 3559 1806 3559 1356 
Q 3559 666 3084 287 
Q 2609 -91 1734 -91 
Q 1441 -91 1130 -33 
Q 819 25 488 141 
L 488 750 
Q 750 597 1062 519 
Q 1375 441 1716 441 
Q 2309 441 2620 675 
Q 2931 909 2931 1356 
Q 2931 1769 2642 2001 
Q 2353 2234 1838 2234 
L 1294 2234 
L 1294 2753 
L 1863 2753 
Q 2328 2753 2575 2939 
Q 2822 3125 2822 3475 
Q 2822 3834 2567 4026 
Q 2313 4219 1838 4219 
Q 1578 4219 1281 4162 
Q 984 4106 628 3988 
L 628 4550 
Q 988 4650 1302 4700 
Q 1616 4750 1894 4750 
Q 2613 4750 3031 4423 
Q 3450 4097 3450 3541 
Q 3450 3153 3228 2886 
Q 3006 2619 2597 2516 
z
" transform="scale(0.015625)"/>
       </defs>
       <use xlink:href="#DejaVuSans-33"/>
      </g>
     </g>
    </g>
    <g id="xtick_5">
     <g id="line2d_5">
      <g>
       <use xlink:href="#m6caeddaa6a" x="242.224183" y="375.470588" style="stroke: #000000; stroke-width: 0.8"/>
      </g>
     </g>
     <g id="text_5">
      <!-- 4 -->
      <g transform="translate(239.042933 390.069026) scale(0.1 -0.1)">
       <defs>
        <path id="DejaVuSans-34" d="M 2419 4116 
L 825 1625 
L 2419 1625 
L 2419 4116 
z
M 2253 4666 
L 3047 4666 
L 3047 1625 
L 3713 1625 
L 3713 1100 
L 3047 1100 
L 3047 0 
L 2419 0 
L 2419 1100 
L 313 1100 
L 313 1709 
L 2253 4666 
z
" transform="scale(0.015625)"/>
       </defs>
       <use xlink:href="#DejaVuSans-34"/>
      </g>
     </g>
    </g>
    <g id="xtick_6">
     <g id="line2d_6">
      <g>
       <use xlink:href="#m6caeddaa6a" x="274.131235" y="375.470588" style="stroke: #000000; stroke-width: 0.8"/>
      </g>
     </g>
     <g id="text_6">
      <!-- 5 -->
      <g transform="translate(270.949985 390.069026) scale(0.1 -0.1)">
       <defs>
        <path id="DejaVuSans-35" d="M 691 4666 
L 3169 4666 
L 3169 4134 
L 1269 4134 
L 1269 2991 
Q 1406 3038 1543 3061 
Q 1681 3084 1819 3084 
Q 2600 3084 3056 2656 
Q 3513 2228 3513 1497 
Q 3513 744 3044 326 
Q 2575 -91 1722 -91 
Q 1428 -91 1123 -41 
Q 819 9 494 109 
L 494 744 
Q 775 591 1075 516 
Q 1375 441 1709 441 
Q 2250 441 2565 725 
Q 2881 1009 2881 1497 
Q 2881 1984 2565 2268 
Q 2250 2553 1709 2553 
Q 1456 2553 1204 2497 
Q 953 2441 691 2322 
L 691 4666 
z
" transform="scale(0.015625)"/>
       </defs>
       <use xlink:href="#DejaVuSans-35"/>
      </g>
     </g>
    </g>
    <g id="xtick_7">
     <g id="line2d_7">
      <g>
       <use xlink:href="#m6caeddaa6a" x="306.038287" y="375.470588" style="stroke: #000000; stroke-width: 0.8"/>
      </g>
     </g>
     <g id="text_7">
      <!-- 6 -->
      <g transform="translate(302.857037 390.069026) scale(0.1 -0.1)">
       <defs>
        <path id="DejaVuSans-36" d="M 2113 2584 
Q 1688 2584 1439 2293 
Q 1191 2003 1191 1497 
Q 1191 994 1439 701 
Q 1688 409 2113 409 
Q 2538 409 2786 701 
Q 3034 994 3034 1497 
Q 3034 2003 2786 2293 
Q 2538 2584 2113 2584 
z
M 3366 4563 
L 3366 3988 
Q 3128 4100 2886 4159 
Q 2644 4219 2406 4219 
Q 1781 4219 1451 3797 
Q 1122 3375 1075 2522 
Q 1259 2794 1537 2939 
Q 1816 3084 2150 3084 
Q 2853 3084 3261 2657 
Q 3669 2231 3669 1497 
Q 3669 778 3244 343 
Q 2819 -91 2113 -91 
Q 1303 -91 875 529 
Q 447 1150 447 2328 
Q 447 3434 972 4092 
Q 1497 4750 2381 4750 
Q 2619 4750 2861 4703 
Q 3103 4656 3366 4563 
z
" transform="scale(0.015625)"/>
       </defs>
       <use xlink:href="#DejaVuSans-36"/>
      </g>
     </g>
    </g>
    <g id="xtick_8">
     <g id="line2d_8">
      <g>
       <use xlink:href="#m6caeddaa6a" x="337.945339" y="375.470588" style="stroke: #000000; stroke-width: 0.8"/>
      </g>
     </g>
     <g id="text_8">
      <!-- 7 -->
      <g transform="translate(334.764089 390.069026) scale(0.1 -0.1)">
       <defs>
        <path id="DejaVuSans-37" d="M 525 4666 
L 3525 4666 
L 3525 4397 
L 1831 0 
L 1172 0 
L 2766 4134 
L 525 4134 
L 525 4666 
z
" transform="scale(0.015625)"/>
       </defs>
       <use xlink:href="#DejaVuSans-37"/>
      </g>
     </g>
    </g>
    <g id="xtick_9">
     <g id="line2d_9">
      <g>
       <use xlink:href="#m6caeddaa6a" x="369.852391" y="375.470588" style="stroke: #000000; stroke-width: 0.8"/>
      </g>
     </g>
     <g id="text_9">
      <!-- 8 -->
      <g transform="translate(366.671141 390.069026) scale(0.1 -0.1)">
       <defs>
        <path id="DejaVuSans-38" d="M 2034 2216 
Q 1584 2216 1326 1975 
Q 1069 1734 1069 1313 
Q 1069 891 1326 650 
Q 1584 409 2034 409 
Q 2484 409 2743 651 
Q 3003 894 3003 1313 
Q 3003 1734 2745 1975 
Q 2488 2216 2034 2216 
z
M 1403 2484 
Q 997 2584 770 2862 
Q 544 3141 544 3541 
Q 544 4100 942 4425 
Q 1341 4750 2034 4750 
Q 2731 4750 3128 4425 
Q 3525 4100 3525 3541 
Q 3525 3141 3298 2862 
Q 3072 2584 2669 2484 
Q 3125 2378 3379 2068 
Q 3634 1759 3634 1313 
Q 3634 634 3220 271 
Q 2806 -91 2034 -91 
Q 1263 -91 848 271 
Q 434 634 434 1313 
Q 434 1759 690 2068 
Q 947 2378 1403 2484 
z
M 1172 3481 
Q 1172 3119 1398 2916 
Q 1625 2713 2034 2713 
Q 2441 2713 2670 2916 
Q 2900 3119 2900 3481 
Q 2900 3844 2670 4047 
Q 2441 4250 2034 4250 
Q 1625 4250 1398 4047 
Q 1172 3844 1172 3481 
z
" transform="scale(0.015625)"/>
       </defs>
       <use xlink:href="#DejaVuSans-38"/>
      </g>
     </g>
    </g>
    <g id="xtick_10">
     <g id="line2d_10">
      <g>
       <use xlink:href="#m6caeddaa6a" x="401.759443" y="375.470588" style="stroke: #000000; stroke-width: 0.8"/>
      </g>
     </g>
     <g id="text_10">
      <!-- 9 -->
      <g transform="translate(398.578193 390.069026) scale(0.1 -0.1)">
       <defs>
        <path id="DejaVuSans-39" d="M 703 97 
L 703 672 
Q 941 559 1184 500 
Q 1428 441 1663 441 
Q 2288 441 2617 861 
Q 2947 1281 2994 2138 
Q 2813 1869 2534 1725 
Q 2256 1581 1919 1581 
Q 1219 1581 811 2004 
Q 403 2428 403 3163 
Q 403 3881 828 4315 
Q 1253 4750 1959 4750 
Q 2769 4750 3195 4129 
Q 3622 3509 3622 2328 
Q 3622 1225 3098 567 
Q 2575 -91 1691 -91 
Q 1453 -91 1209 -44 
Q 966 3 703 97 
z
M 1959 2075 
Q 2384 2075 2632 2365 
Q 2881 2656 2881 3163 
Q 2881 3666 2632 3958 
Q 2384 4250 1959 4250 
Q 1534 4250 1286 3958 
Q 1038 3666 1038 3163 
Q 1038 2656 1286 2365 
Q 1534 2075 1959 2075 
z
" transform="scale(0.015625)"/>
       </defs>
       <use xlink:href="#DejaVuSans-39"/>
      </g>
     </g>
    </g>
    <g id="xtick_11">
     <g id="line2d_11">
      <g>
       <use xlink:href="#m6caeddaa6a" x="433.666495" y="375.470588" style="stroke: #000000; stroke-width: 0.8"/>
      </g>
     </g>
     <g id="text_11">
      <!-- 10 -->
      <g transform="translate(427.303995 390.069026) scale(0.1 -0.1)">
       <use xlink:href="#DejaVuSans-31"/>
       <use xlink:href="#DejaVuSans-30" transform="translate(63.623047 0)"/>
      </g>
     </g>
    </g>
    <g id="xtick_12">
     <g id="line2d_12">
      <g>
       <use xlink:href="#m6caeddaa6a" x="465.573547" y="375.470588" style="stroke: #000000; stroke-width: 0.8"/>
      </g>
     </g>
     <g id="text_12">
      <!-- 11 -->
      <g transform="translate(459.211047 390.069026) scale(0.1 -0.1)">
       <use xlink:href="#DejaVuSans-31"/>
       <use xlink:href="#DejaVuSans-31" transform="translate(63.623047 0)"/>
      </g>
     </g>
    </g>
    <g id="xtick_13">
     <g id="line2d_13">
      <g>
       <use xlink:href="#m6caeddaa6a" x="497.480599" y="375.470588" style="stroke: #000000; stroke-width: 0.8"/>
      </g>
     </g>
     <g id="text_13">
      <!-- 12 -->
      <g transform="translate(491.118099 390.069026) scale(0.1 -0.1)">
       <use xlink:href="#DejaVuSans-31"/>
       <use xlink:href="#DejaVuSans-32" transform="translate(63.623047 0)"/>
      </g>
     </g>
    </g>
    <g id="xtick_14">
     <g id="line2d_14">
      <g>
       <use xlink:href="#m6caeddaa6a" x="529.387651" y="375.470588" style="stroke: #000000; stroke-width: 0.8"/>
      </g>
     </g>
     <g id="text_14">
      <!-- 13 -->
      <g transform="translate(523.025151 390.069026) scale(0.1 -0.1)">
       <use xlink:href="#DejaVuSans-31"/>
       <use xlink:href="#DejaVuSans-33" transform="translate(63.623047 0)"/>
      </g>
     </g>
    </g>
    <g id="xtick_15">
     <g id="line2d_15">
      <g>
       <use xlink:href="#m6caeddaa6a" x="561.294702" y="375.470588" style="stroke: #000000; stroke-width: 0.8"/>
      </g>
     </g>
     <g id="text_15">
      <!-- 14 -->
      <g transform="translate(554.932202 390.069026) scale(0.1 -0.1)">
       <use xlink:href="#DejaVuSans-31"/>
       <use xlink:href="#DejaVuSans-34" transform="translate(63.623047 0)"/>
      </g>
     </g>
    </g>
    <g id="xtick_16">
     <g id="line2d_16">
      <g>
       <use xlink:href="#m6caeddaa6a" x="593.201754" y="375.470588" style="stroke: #000000; stroke-width: 0.8"/>
      </g>
     </g>
     <g id="text_16">
      <!-- 15 -->
      <g transform="translate(586.839254 390.069026) scale(0.1 -0.1)">
       <use xlink:href="#DejaVuSans-31"/>
       <use xlink:href="#DejaVuSans-35" transform="translate(63.623047 0)"/>
      </g>
     </g>
    </g>
    <g id="xtick_17">
     <g id="line2d_17">
      <g>
       <use xlink:href="#m6caeddaa6a" x="625.108806" y="375.470588" style="stroke: #000000; stroke-width: 0.8"/>
      </g>
     </g>
     <g id="text_17">
      <!-- 16 -->
      <g transform="translate(618.746306 390.069026) scale(0.1 -0.1)">
       <use xlink:href="#DejaVuSans-31"/>
       <use xlink:href="#DejaVuSans-36" transform="translate(63.623047 0)"/>
      </g>
     </g>
    </g>
    <g id="xtick_18">
     <g id="line2d_18">
      <g>
       <use xlink:href="#m6caeddaa6a" x="657.015858" y="375.470588" style="stroke: #000000; stroke-width: 0.8"/>
      </g>
     </g>
     <g id="text_18">
      <!-- 17 -->
      <g transform="translate(650.653358 390.069026) scale(0.1 -0.1)">
       <use xlink:href="#DejaVuSans-31"/>
       <use xlink:href="#DejaVuSans-37" transform="translate(63.623047 0)"/>
      </g>
     </g>
    </g>
    <g id="xtick_19">
     <g id="line2d_19">
      <g>
       <use xlink:href="#m6caeddaa6a" x="688.92291" y="375.470588" style="stroke: #000000; stroke-width: 0.8"/>
      </g>
     </g>
     <g id="text_19">
      <!-- 18 -->
      <g transform="translate(682.56041 390.069026) scale(0.1 -0.1)">
       <use xlink:href="#DejaVuSans-31"/>
       <use xlink:href="#DejaVuSans-38" transform="translate(63.623047 0)"/>
      </g>
     </g>
    </g>
    <g id="xtick_20">
     <g id="line2d_20">
      <g>
       <use xlink:href="#m6caeddaa6a" x="720.829962" y="375.470588" style="stroke: #000000; stroke-width: 0.8"/>
      </g>
     </g>
     <g id="text_20">
      <!-- 19 -->
      <g transform="translate(714.467462 390.069026) scale(0.1 -0.1)">
       <use xlink:href="#DejaVuSans-31"/>
       <use xlink:href="#DejaVuSans-39" transform="translate(63.623047 0)"/>
      </g>
     </g>
    </g>
    <g id="xtick_21">
     <g id="line2d_21">
      <g>
       <use xlink:href="#m6caeddaa6a" x="752.737014" y="375.470588" style="stroke: #000000; stroke-width: 0.8"/>
      </g>
     </g>
     <g id="text_21">
      <!-- 20 -->
      <g transform="translate(746.374514 390.069026) scale(0.1 -0.1)">
       <use xlink:href="#DejaVuSans-32"/>
       <use xlink:href="#DejaVuSans-30" transform="translate(63.623047 0)"/>
      </g>
     </g>
    </g>
    <g id="xtick_22">
     <g id="line2d_22">
      <g>
       <use xlink:href="#m6caeddaa6a" x="784.644066" y="375.470588" style="stroke: #000000; stroke-width: 0.8"/>
      </g>
     </g>
     <g id="text_22">
      <!-- 21 -->
      <g transform="translate(778.281566 390.069026) scale(0.1 -0.1)">
       <use xlink:href="#DejaVuSans-32"/>
       <use xlink:href="#DejaVuSans-31" transform="translate(63.623047 0)"/>
      </g>
     </g>
    </g>
    <g id="xtick_23">
     <g id="line2d_23">
      <g>
       <use xlink:href="#m6caeddaa6a" x="816.551118" y="375.470588" style="stroke: #000000; stroke-width: 0.8"/>
      </g>
     </g>
     <g id="text_23">
      <!-- 22 -->
      <g transform="translate(810.188618 390.069026) scale(0.1 -0.1)">
       <use xlink:href="#DejaVuSans-32"/>
       <use xlink:href="#DejaVuSans-32" transform="translate(63.623047 0)"/>
      </g>
     </g>
    </g>
    <g id="xtick_24">
     <g id="line2d_24">
      <g>
       <use xlink:href="#m6caeddaa6a" x="848.45817" y="375.470588" style="stroke: #000000; stroke-width: 0.8"/>
      </g>
     </g>
     <g id="text_24">
      <!-- 23 -->
      <g transform="translate(842.09567 390.069026) scale(0.1 -0.1)">
       <use xlink:href="#DejaVuSans-32"/>
       <use xlink:href="#DejaVuSans-33" transform="translate(63.623047 0)"/>
      </g>
     </g>
    </g>
    <g id="xtick_25">
     <g id="line2d_25">
      <g>
       <use xlink:href="#m6caeddaa6a" x="880.365221" y="375.470588" style="stroke: #000000; stroke-width: 0.8"/>
      </g>
     </g>
     <g id="text_25">
      <!-- 24 -->
      <g transform="translate(874.002721 390.069026) scale(0.1 -0.1)">
       <use xlink:href="#DejaVuSans-32"/>
       <use xlink:href="#DejaVuSans-34" transform="translate(63.623047 0)"/>
      </g>
     </g>
    </g>
    <g id="xtick_26">
     <g id="line2d_26">
      <g>
       <use xlink:href="#m6caeddaa6a" x="912.272273" y="375.470588" style="stroke: #000000; stroke-width: 0.8"/>
      </g>
     </g>
     <g id="text_26">
      <!-- 25 -->
      <g transform="translate(905.909773 390.069026) scale(0.1 -0.1)">
       <use xlink:href="#DejaVuSans-32"/>
       <use xlink:href="#DejaVuSans-35" transform="translate(63.623047 0)"/>
      </g>
     </g>
    </g>
    <g id="xtick_27">
     <g id="line2d_27">
      <g>
       <use xlink:href="#m6caeddaa6a" x="944.179325" y="375.470588" style="stroke: #000000; stroke-width: 0.8"/>
      </g>
     </g>
     <g id="text_27">
      <!-- 26 -->
      <g transform="translate(937.816825 390.069026) scale(0.1 -0.1)">
       <use xlink:href="#DejaVuSans-32"/>
       <use xlink:href="#DejaVuSans-36" transform="translate(63.623047 0)"/>
      </g>
     </g>
    </g>
    <g id="xtick_28">
     <g id="line2d_28">
      <g>
       <use xlink:href="#m6caeddaa6a" x="976.086377" y="375.470588" style="stroke: #000000; stroke-width: 0.8"/>
      </g>
     </g>
     <g id="text_28">
      <!-- 27 -->
      <g transform="translate(969.723877 390.069026) scale(0.1 -0.1)">
       <use xlink:href="#DejaVuSans-32"/>
       <use xlink:href="#DejaVuSans-37" transform="translate(63.623047 0)"/>
      </g>
     </g>
    </g>
    <g id="text_29">
     <!-- level -->
     <g transform="translate(533.450551 403.747151) scale(0.1 -0.1)">
      <defs>
       <path id="DejaVuSans-6c" d="M 603 4863 
L 1178 4863 
L 1178 0 
L 603 0 
L 603 4863 
z
" transform="scale(0.015625)"/>
       <path id="DejaVuSans-65" d="M 3597 1894 
L 3597 1613 
L 953 1613 
Q 991 1019 1311 708 
Q 1631 397 2203 397 
Q 2534 397 2845 478 
Q 3156 559 3463 722 
L 3463 178 
Q 3153 47 2828 -22 
Q 2503 -91 2169 -91 
Q 1331 -91 842 396 
Q 353 884 353 1716 
Q 353 2575 817 3079 
Q 1281 3584 2069 3584 
Q 2775 3584 3186 3129 
Q 3597 2675 3597 1894 
z
M 3022 2063 
Q 3016 2534 2758 2815 
Q 2500 3097 2075 3097 
Q 1594 3097 1305 2825 
Q 1016 2553 972 2059 
L 3022 2063 
z
" transform="scale(0.015625)"/>
       <path id="DejaVuSans-76" d="M 191 3500 
L 800 3500 
L 1894 563 
L 2988 3500 
L 3597 3500 
L 2284 0 
L 1503 0 
L 191 3500 
z
" transform="scale(0.015625)"/>
      </defs>
      <use xlink:href="#DejaVuSans-6c"/>
      <use xlink:href="#DejaVuSans-65" transform="translate(27.783203 0)"/>
      <use xlink:href="#DejaVuSans-76" transform="translate(89.306641 0)"/>
      <use xlink:href="#DejaVuSans-65" transform="translate(148.486328 0)"/>
      <use xlink:href="#DejaVuSans-6c" transform="translate(210.009766 0)"/>
     </g>
    </g>
   </g>
   <g id="matplotlib.axis_2">
    <g id="ytick_1">
     <g id="line2d_29">
      <path d="M 57.482353 375.470588 
L 1033.2 375.470588 
" clip-path="url(#p06ec9b5bc1)" style="fill: none; stroke: #dddddd; stroke-width: 0.6; stroke-linecap: square"/>
     </g>
     <g id="line2d_30">
      <defs>
       <path id="ma3a42975e3" d="M 0 0 
L -3.5 0 
" style="stroke: #000000; stroke-width: 0.8"/>
      </defs>
      <g>
       <use xlink:href="#ma3a42975e3" x="57.482353" y="375.470588" style="stroke: #000000; stroke-width: 0.8"/>
      </g>
     </g>
     <g id="text_30">
      <!-- 0 -->
      <g transform="translate(44.119853 379.269807) scale(0.1 -0.1)">
       <use xlink:href="#DejaVuSans-30"/>
      </g>
     </g>
    </g>
    <g id="ytick_2">
     <g id="line2d_31">
      <path d="M 57.482353 333.114494 
L 1033.2 333.114494 
" clip-path="url(#p06ec9b5bc1)" style="fill: none; stroke: #dddddd; stroke-width: 0.6; stroke-linecap: square"/>
     </g>
     <g id="line2d_32">
      <g>
       <use xlink:href="#ma3a42975e3" x="57.482353" y="333.114494" style="stroke: #000000; stroke-width: 0.8"/>
      </g>
     </g>
     <g id="text_31">
      <!-- 500 -->
      <g transform="translate(31.394853 336.913713) scale(0.1 -0.1)">
       <use xlink:href="#DejaVuSans-35"/>
       <use xlink:href="#DejaVuSans-30" transform="translate(63.623047 0)"/>
       <use xlink:href="#DejaVuSans-30" transform="translate(127.246094 0)"/>
      </g>
     </g>
    </g>
    <g id="ytick_3">
     <g id="line2d_33">
      <path d="M 57.482353 290.758399 
L 1033.2 290.758399 
" clip-path="url(#p06ec9b5bc1)" style="fill: none; stroke: #dddddd; stroke-width: 0.6; stroke-linecap: square"/>
     </g>
     <g id="line2d_34">
      <g>
       <use xlink:href="#ma3a42975e3" x="57.482353" y="290.758399" style="stroke: #000000; stroke-width: 0.8"/>
      </g>
     </g>
     <g id="text_32">
      <!-- 1000 -->
      <g transform="translate(25.032353 294.557618) scale(0.1 -0.1)">
       <use xlink:href="#DejaVuSans-31"/>
       <use xlink:href="#DejaVuSans-30" transform="translate(63.623047 0)"/>
       <use xlink:href="#DejaVuSans-30" transform="translate(127.246094 0)"/>
       <use xlink:href="#DejaVuSans-30" transform="translate(190.869141 0)"/>
      </g>
     </g>
    </g>
    <g id="ytick_4">
     <g id="line2d_35">
      <path d="M 57.482353 248.402305 
L 1033.2 248.402305 
" clip-path="url(#p06ec9b5bc1)" style="fill: none; stroke: #dddddd; stroke-width: 0.6; stroke-linecap: square"/>
     </g>
     <g id="line2d_36">
      <g>
       <use xlink:href="#ma3a42975e3" x="57.482353" y="248.402305" style="stroke: #000000; stroke-width: 0.8"/>
      </g>
     </g>
     <g id="text_33">
      <!-- 1500 -->
      <g transform="translate(25.032353 252.201524) scale(0.1 -0.1)">
       <use xlink:href="#DejaVuSans-31"/>
       <use xlink:href="#DejaVuSans-35" transform="translate(63.623047 0)"/>
       <use xlink:href="#DejaVuSans-30" transform="translate(127.246094 0)"/>
       <use xlink:href="#DejaVuSans-30" transform="translate(190.869141 0)"/>
      </g>
     </g>
    </g>
    <g id="ytick_5">
     <g id="line2d_37">
      <path d="M 57.482353 206.04621 
L 1033.2 206.04621 
" clip-path="url(#p06ec9b5bc1)" style="fill: none; stroke: #dddddd; stroke-width: 0.6; stroke-linecap: square"/>
     </g>
     <g id="line2d_38">
      <g>
       <use xlink:href="#ma3a42975e3" x="57.482353" y="206.04621" style="stroke: #000000; stroke-width: 0.8"/>
      </g>
     </g>
     <g id="text_34">
      <!-- 2000 -->
      <g transform="translate(25.032353 209.845429) scale(0.1 -0.1)">
       <use xlink:href="#DejaVuSans-32"/>
       <use xlink:href="#DejaVuSans-30" transform="translate(63.623047 0)"/>
       <use xlink:href="#DejaVuSans-30" transform="translate(127.246094 0)"/>
       <use xlink:href="#DejaVuSans-30" transform="translate(190.869141 0)"/>
      </g>
     </g>
    </g>
    <g id="ytick_6">
     <g id="line2d_39">
      <path d="M 57.482353 163.690116 
L 1033.2 163.690116 
" clip-path="url(#p06ec9b5bc1)" style="fill: none; stroke: #dddddd; stroke-width: 0.6; stroke-linecap: square"/>
     </g>
     <g id="line2d_40">
      <g>
       <use xlink:href="#ma3a42975e3" x="57.482353" y="163.690116" style="stroke: #000000; stroke-width: 0.8"/>
      </g>
     </g>
     <g id="text_35">
      <!-- 2500 -->
      <g transform="translate(25.032353 167.489335) scale(0.1 -0.1)">
       <use xlink:href="#DejaVuSans-32"/>
       <use xlink:href="#DejaVuSans-35" transform="translate(63.623047 0)"/>
       <use xlink:href="#DejaVuSans-30" transform="translate(127.246094 0)"/>
       <use xlink:href="#DejaVuSans-30" transform="translate(190.869141 0)"/>
      </g>
     </g>
    </g>
    <g id="ytick_7">
     <g id="line2d_41">
      <path d="M 57.482353 121.334021 
L 1033.2 121.334021 
" clip-path="url(#p06ec9b5bc1)" style="fill: none; stroke: #dddddd; stroke-width: 0.6; stroke-linecap: square"/>
     </g>
     <g id="line2d_42">
      <g>
       <use xlink:href="#ma3a42975e3" x="57.482353" y="121.334021" style="stroke: #000000; stroke-width: 0.8"/>
      </g>
     </g>
     <g id="text_36">
      <!-- 3000 -->
      <g transform="translate(25.032353 125.13324) scale(0.1 -0.1)">
       <use xlink:href="#DejaVuSans-33"/>
       <use xlink:href="#DejaVuSans-30" transform="translate(63.623047 0)"/>
       <use xlink:href="#DejaVuSans-30" transform="translate(127.246094 0)"/>
       <use xlink:href="#DejaVuSans-30" transform="translate(190.869141 0)"/>
      </g>
     </g>
    </g>
    <g id="ytick_8">
     <g id="line2d_43">
      <path d="M 57.482353 78.977927 
L 1033.2 78.977927 
" clip-path="url(#p06ec9b5bc1)" style="fill: none; stroke: #dddddd; stroke-width: 0.6; stroke-linecap: square"/>
     </g>
     <g id="line2d_44">
      <g>
       <use xlink:href="#ma3a42975e3" x="57.482353" y="78.977927" style="stroke: #000000; stroke-width: 0.8"/>
      </g>
     </g>
     <g id="text_37">
      <!-- 3500 -->
      <g transform="translate(25.032353 82.777146) scale(0.1 -0.1)">
       <use xlink:href="#DejaVuSans-33"/>
       <use xlink:href="#DejaVuSans-35" transform="translate(63.623047 0)"/>
       <use xlink:href="#DejaVuSans-30" transform="translate(127.246094 0)"/>
       <use xlink:href="#DejaVuSans-30" transform="translate(190.869141 0)"/>
      </g>
     </g>
    </g>
    <g id="ytick_9">
     <g id="line2d_45">
      <path d="M 57.482353 36.621832 
L 1033.2 36.621832 
" clip-path="url(#p06ec9b5bc1)" style="fill: none; stroke: #dddddd; stroke-width: 0.6; stroke-linecap: square"/>
     </g>
     <g id="line2d_46">
      <g>
       <use xlink:href="#ma3a42975e3" x="57.482353" y="36.621832" style="stroke: #000000; stroke-width: 0.8"/>
      </g>
     </g>
     <g id="text_38">
      <!-- 4000 -->
      <g transform="translate(25.032353 40.421051) scale(0.1 -0.1)">
       <use xlink:href="#DejaVuSans-34"/>
       <use xlink:href="#DejaVuSans-30" transform="translate(63.623047 0)"/>
       <use xlink:href="#DejaVuSans-30" transform="translate(127.246094 0)"/>
       <use xlink:href="#DejaVuSans-30" transform="translate(190.869141 0)"/>
      </g>
     </g>
    </g>
    <g id="text_39">
     <!-- front count -->
     <g transform="translate(18.952665 229.227895) rotate(-90) scale(0.1 -0.1)">
      <defs>
       <path id="DejaVuSans-66" d="M 2375 4863 
L 2375 4384 
L 1825 4384 
Q 1516 4384 1395 4259 
Q 1275 4134 1275 3809 
L 1275 3500 
L 2222 3500 
L 2222 3053 
L 1275 3053 
L 1275 0 
L 697 0 
L 697 3053 
L 147 3053 
L 147 3500 
L 697 3500 
L 697 3744 
Q 697 4328 969 4595 
Q 1241 4863 1831 4863 
L 2375 4863 
z
" transform="scale(0.015625)"/>
       <path id="DejaVuSans-72" d="M 2631 2963 
Q 2534 3019 2420 3045 
Q 2306 3072 2169 3072 
Q 1681 3072 1420 2755 
Q 1159 2438 1159 1844 
L 1159 0 
L 581 0 
L 581 3500 
L 1159 3500 
L 1159 2956 
Q 1341 3275 1631 3429 
Q 1922 3584 2338 3584 
Q 2397 3584 2469 3576 
Q 2541 3569 2628 3553 
L 2631 2963 
z
" transform="scale(0.015625)"/>
       <path id="DejaVuSans-6f" d="M 1959 3097 
Q 1497 3097 1228 2736 
Q 959 2375 959 1747 
Q 959 1119 1226 758 
Q 1494 397 1959 397 
Q 2419 397 2687 759 
Q 2956 1122 2956 1747 
Q 2956 2369 2687 2733 
Q 2419 3097 1959 3097 
z
M 1959 3584 
Q 2709 3584 3137 3096 
Q 3566 2609 3566 1747 
Q 3566 888 3137 398 
Q 2709 -91 1959 -91 
Q 1206 -91 779 398 
Q 353 888 353 1747 
Q 353 2609 779 3096 
Q 1206 3584 1959 3584 
z
" transform="scale(0.015625)"/>
       <path id="DejaVuSans-6e" d="M 3513 2113 
L 3513 0 
L 2938 0 
L 2938 2094 
Q 2938 2591 2744 2837 
Q 2550 3084 2163 3084 
Q 1697 3084 1428 2787 
Q 1159 2491 1159 1978 
L 1159 0 
L 581 0 
L 581 3500 
L 1159 3500 
L 1159 2956 
Q 1366 3272 1645 3428 
Q 1925 3584 2291 3584 
Q 2894 3584 3203 3211 
Q 3513 2838 3513 2113 
z
" transform="scale(0.015625)"/>
       <path id="DejaVuSans-74" d="M 1172 4494 
L 1172 3500 
L 2356 3500 
L 2356 3053 
L 1172 3053 
L 1172 1153 
Q 1172 725 1289 603 
Q 1406 481 1766 481 
L 2356 481 
L 2356 0 
L 1766 0 
Q 1100 0 847 248 
Q 594 497 594 1153 
L 594 3053 
L 172 3053 
L 172 3500 
L 594 3500 
L 594 4494 
L 1172 4494 
z
" transform="scale(0.015625)"/>
       <path id="DejaVuSans-20" transform="scale(0.015625)"/>
       <path id="DejaVuSans-63" d="M 3122 3366 
L 3122 2828 
Q 2878 2963 2633 3030 
Q 2388 3097 2138 3097 
Q 1578 3097 1268 2742 
Q 959 2388 959 1747 
Q 959 1106 1268 751 
Q 1578 397 2138 397 
Q 2388 397 2633 464 
Q 2878 531 3122 666 
L 3122 134 
Q 2881 22 2623 -34 
Q 2366 -91 2075 -91 
Q 1284 -91 818 406 
Q 353 903 353 1747 
Q 353 2603 823 3093 
Q 1294 3584 2113 3584 
Q 2378 3584 2631 3529 
Q 2884 3475 3122 3366 
z
" transform="scale(0.015625)"/>
       <path id="DejaVuSans-75" d="M 544 1381 
L 544 3500 
L 1119 3500 
L 1119 1403 
Q 1119 906 1312 657 
Q 1506 409 1894 409 
Q 2359 409 2629 706 
Q 2900 1003 2900 1516 
L 2900 3500 
L 3475 3500 
L 3475 0 
L 2900 0 
L 2900 538 
Q 2691 219 2414 64 
Q 2138 -91 1772 -91 
Q 1169 -91 856 284 
Q 544 659 544 1381 
z
M 1991 3584 
L 1991 3584 
z
" transform="scale(0.015625)"/>
      </defs>
      <use xlink:href="#DejaVuSans-66"/>
      <use xlink:href="#DejaVuSans-72" transform="translate(35.205078 0)"/>
      <use xlink:href="#DejaVuSans-6f" transform="translate(74.068359 0)"/>
      <use xlink:href="#DejaVuSans-6e" transform="translate(135.25 0)"/>
      <use xlink:href="#DejaVuSans-74" transform="translate(198.628906 0)"/>
      <use xlink:href="#DejaVuSans-20" transform="translate(237.837891 0)"/>
      <use xlink:href="#DejaVuSans-63" transform="translate(269.625 0)"/>
      <use xlink:href="#DejaVuSans-6f" transform="translate(324.605469 0)"/>
      <use xlink:href="#DejaVuSans-75" transform="translate(385.787109 0)"/>
      <use xlink:href="#DejaVuSans-6e" transform="translate(449.166016 0)"/>
      <use xlink:href="#DejaVuSans-74" transform="translate(512.544922 0)"/>
     </g>
    </g>
   </g>
   <g id="patch_87">
    <path d="M 57.482353 375.470588 
L 57.482353 27.811765 
" style="fill: none; stroke: #000000; stroke-width: 0.8; stroke-linejoin: miter; stroke-linecap: square"/>
   </g>
   <g id="patch_88">
    <path d="M 1033.2 375.470588 
L 1033.2 27.811765 
" style="fill: none; stroke: #000000; stroke-width: 0.8; stroke-linejoin: miter; stroke-linecap: square"/>
   </g>
   <g id="patch_89">
    <path d="M 57.482353 375.470588 
L 1033.2 375.470588 
" style="fill: none; stroke: #000000; stroke-width: 0.8; stroke-linejoin: miter; stroke-linecap: square"/>
   </g>
   <g id="patch_90">
    <path d="M 57.482353 27.811765 
L 1033.2 27.811765 
" style="fill: none; stroke: #000000; stroke-width: 0.8; stroke-linejoin: miter; stroke-linecap: square"/>
   </g>
   <g id="text_40">
    <!-- mid=1 -->
    <g style="fill: #245b2d" transform="translate(180.341642 311.322453) rotate(-90) scale(0.07 -0.07)">
     <defs>
      <path id="DejaVuSans-6d" d="M 3328 2828 
Q 3544 3216 3844 3400 
Q 4144 3584 4550 3584 
Q 5097 3584 5394 3201 
Q 5691 2819 5691 2113 
L 5691 0 
L 5113 0 
L 5113 2094 
Q 5113 2597 4934 2840 
Q 4756 3084 4391 3084 
Q 3944 3084 3684 2787 
Q 3425 2491 3425 1978 
L 3425 0 
L 2847 0 
L 2847 2094 
Q 2847 2600 2669 2842 
Q 2491 3084 2119 3084 
Q 1678 3084 1418 2786 
Q 1159 2488 1159 1978 
L 1159 0 
L 581 0 
L 581 3500 
L 1159 3500 
L 1159 2956 
Q 1356 3278 1631 3431 
Q 1906 3584 2284 3584 
Q 2666 3584 2933 3390 
Q 3200 3197 3328 2828 
z
" transform="scale(0.015625)"/>
      <path id="DejaVuSans-69" d="M 603 3500 
L 1178 3500 
L 1178 0 
L 603 0 
L 603 3500 
z
M 603 4863 
L 1178 4863 
L 1178 4134 
L 603 4134 
L 603 4863 
z
" transform="scale(0.015625)"/>
      <path id="DejaVuSans-64" d="M 2906 2969 
L 2906 4863 
L 3481 4863 
L 3481 0 
L 2906 0 
L 2906 525 
Q 2725 213 2448 61 
Q 2172 -91 1784 -91 
Q 1150 -91 751 415 
Q 353 922 353 1747 
Q 353 2572 751 3078 
Q 1150 3584 1784 3584 
Q 2172 3584 2448 3432 
Q 2725 3281 2906 2969 
z
M 947 1747 
Q 947 1113 1208 752 
Q 1469 391 1925 391 
Q 2381 391 2643 752 
Q 2906 1113 2906 1747 
Q 2906 2381 2643 2742 
Q 2381 3103 1925 3103 
Q 1469 3103 1208 2742 
Q 947 2381 947 1747 
z
" transform="scale(0.015625)"/>
      <path id="DejaVuSans-3d" d="M 678 2906 
L 4684 2906 
L 4684 2381 
L 678 2381 
L 678 2906 
z
M 678 1631 
L 4684 1631 
L 4684 1100 
L 678 1100 
L 678 1631 
z
" transform="scale(0.015625)"/>
     </defs>
     <use xlink:href="#DejaVuSans-6d"/>
     <use xlink:href="#DejaVuSans-69" transform="translate(97.412109 0)"/>
     <use xlink:href="#DejaVuSans-64" transform="translate(125.195312 0)"/>
     <use xlink:href="#DejaVuSans-3d" transform="translate(188.671875 0)"/>
     <use xlink:href="#DejaVuSans-31" transform="translate(272.460938 0)"/>
    </g>
   </g>
   <g id="text_41">
    <!-- mid=1 -->
    <g style="fill: #245b2d" transform="translate(212.248694 337.15967) rotate(-90) scale(0.07 -0.07)">
     <use xlink:href="#DejaVuSans-6d"/>
     <use xlink:href="#DejaVuSans-69" transform="translate(97.412109 0)"/>
     <use xlink:href="#DejaVuSans-64" transform="translate(125.195312 0)"/>
     <use xlink:href="#DejaVuSans-3d" transform="translate(188.671875 0)"/>
     <use xlink:href="#DejaVuSans-31" transform="translate(272.460938 0)"/>
    </g>
   </g>
   <g id="text_42">
    <!-- mid=1 -->
    <g style="fill: #245b2d" transform="translate(244.155746 350.883045) rotate(-90) scale(0.07 -0.07)">
     <use xlink:href="#DejaVuSans-6d"/>
     <use xlink:href="#DejaVuSans-69" transform="translate(97.412109 0)"/>
     <use xlink:href="#DejaVuSans-64" transform="translate(125.195312 0)"/>
     <use xlink:href="#DejaVuSans-3d" transform="translate(188.671875 0)"/>
     <use xlink:href="#DejaVuSans-31" transform="translate(272.460938 0)"/>
    </g>
   </g>
   <g id="text_43">
    <!-- mid=1 -->
    <g style="fill: #245b2d" transform="translate(276.062798 358.761278) rotate(-90) scale(0.07 -0.07)">
     <use xlink:href="#DejaVuSans-6d"/>
     <use xlink:href="#DejaVuSans-69" transform="translate(97.412109 0)"/>
     <use xlink:href="#DejaVuSans-64" transform="translate(125.195312 0)"/>
     <use xlink:href="#DejaVuSans-3d" transform="translate(188.671875 0)"/>
     <use xlink:href="#DejaVuSans-31" transform="translate(272.460938 0)"/>
    </g>
   </g>
   <g id="text_44">
    <!-- mid=2 -->
    <g style="fill: #245b2d" transform="translate(307.96985 362.912176) rotate(-90) scale(0.07 -0.07)">
     <use xlink:href="#DejaVuSans-6d"/>
     <use xlink:href="#DejaVuSans-69" transform="translate(97.412109 0)"/>
     <use xlink:href="#DejaVuSans-64" transform="translate(125.195312 0)"/>
     <use xlink:href="#DejaVuSans-3d" transform="translate(188.671875 0)"/>
     <use xlink:href="#DejaVuSans-32" transform="translate(272.460938 0)"/>
    </g>
   </g>
   <g id="text_45">
    <!-- mid=6 -->
    <g style="fill: #245b2d" transform="translate(339.876902 366.131239) rotate(-90) scale(0.07 -0.07)">
     <use xlink:href="#DejaVuSans-6d"/>
     <use xlink:href="#DejaVuSans-69" transform="translate(97.412109 0)"/>
     <use xlink:href="#DejaVuSans-64" transform="translate(125.195312 0)"/>
     <use xlink:href="#DejaVuSans-3d" transform="translate(188.671875 0)"/>
     <use xlink:href="#DejaVuSans-36" transform="translate(272.460938 0)"/>
    </g>
   </g>
   <g id="text_46">
    <!-- mid=5 -->
    <g style="fill: #245b2d" transform="translate(371.783954 368.079619) rotate(-90) scale(0.07 -0.07)">
     <use xlink:href="#DejaVuSans-6d"/>
     <use xlink:href="#DejaVuSans-69" transform="translate(97.412109 0)"/>
     <use xlink:href="#DejaVuSans-64" transform="translate(125.195312 0)"/>
     <use xlink:href="#DejaVuSans-3d" transform="translate(188.671875 0)"/>
     <use xlink:href="#DejaVuSans-35" transform="translate(272.460938 0)"/>
    </g>
   </g>
   <g id="text_47">
    <!-- mid=7 -->
    <g style="fill: #245b2d" transform="translate(403.691005 368.926741) rotate(-90) scale(0.07 -0.07)">
     <use xlink:href="#DejaVuSans-6d"/>
     <use xlink:href="#DejaVuSans-69" transform="translate(97.412109 0)"/>
     <use xlink:href="#DejaVuSans-64" transform="translate(125.195312 0)"/>
     <use xlink:href="#DejaVuSans-3d" transform="translate(188.671875 0)"/>
     <use xlink:href="#DejaVuSans-37" transform="translate(272.460938 0)"/>
    </g>
   </g>
   <g id="text_48">
    <!-- mid=3 -->
    <g style="fill: #245b2d" transform="translate(435.598057 369.435014) rotate(-90) scale(0.07 -0.07)">
     <use xlink:href="#DejaVuSans-6d"/>
     <use xlink:href="#DejaVuSans-69" transform="translate(97.412109 0)"/>
     <use xlink:href="#DejaVuSans-64" transform="translate(125.195312 0)"/>
     <use xlink:href="#DejaVuSans-3d" transform="translate(188.671875 0)"/>
     <use xlink:href="#DejaVuSans-33" transform="translate(272.460938 0)"/>
    </g>
   </g>
   <g id="text_49">
    <!-- mid=4 -->
    <g style="fill: #245b2d" transform="translate(467.505109 369.858575) rotate(-90) scale(0.07 -0.07)">
     <use xlink:href="#DejaVuSans-6d"/>
     <use xlink:href="#DejaVuSans-69" transform="translate(97.412109 0)"/>
     <use xlink:href="#DejaVuSans-64" transform="translate(125.195312 0)"/>
     <use xlink:href="#DejaVuSans-3d" transform="translate(188.671875 0)"/>
     <use xlink:href="#DejaVuSans-34" transform="translate(272.460938 0)"/>
    </g>
   </g>
   <g id="text_50">
    <!-- mid=3 -->
    <g style="fill: #245b2d" transform="translate(499.412161 370.282136) rotate(-90) scale(0.07 -0.07)">
     <use xlink:href="#DejaVuSans-6d"/>
     <use xlink:href="#DejaVuSans-69" transform="translate(97.412109 0)"/>
     <use xlink:href="#DejaVuSans-64" transform="translate(125.195312 0)"/>
     <use xlink:href="#DejaVuSans-3d" transform="translate(188.671875 0)"/>
     <use xlink:href="#DejaVuSans-33" transform="translate(272.460938 0)"/>
    </g>
   </g>
   <g id="text_51">
    <!-- mid=4 -->
    <g style="fill: #245b2d" transform="translate(531.319213 370.536273) rotate(-90) scale(0.07 -0.07)">
     <use xlink:href="#DejaVuSans-6d"/>
     <use xlink:href="#DejaVuSans-69" transform="translate(97.412109 0)"/>
     <use xlink:href="#DejaVuSans-64" transform="translate(125.195312 0)"/>
     <use xlink:href="#DejaVuSans-3d" transform="translate(188.671875 0)"/>
     <use xlink:href="#DejaVuSans-34" transform="translate(272.460938 0)"/>
    </g>
   </g>
   <g id="text_52">
    <!-- mid=2 -->
    <g style="fill: #245b2d" transform="translate(563.226265 370.790409) rotate(-90) scale(0.07 -0.07)">
     <use xlink:href="#DejaVuSans-6d"/>
     <use xlink:href="#DejaVuSans-69" transform="translate(97.412109 0)"/>
     <use xlink:href="#DejaVuSans-64" transform="translate(125.195312 0)"/>
     <use xlink:href="#DejaVuSans-3d" transform="translate(188.671875 0)"/>
     <use xlink:href="#DejaVuSans-32" transform="translate(272.460938 0)"/>
    </g>
   </g>
   <g id="text_53">
    <!-- mid=1 -->
    <g style="fill: #245b2d" transform="translate(595.133317 370.959834) rotate(-90) scale(0.07 -0.07)">
     <use xlink:href="#DejaVuSans-6d"/>
     <use xlink:href="#DejaVuSans-69" transform="translate(97.412109 0)"/>
     <use xlink:href="#DejaVuSans-64" transform="translate(125.195312 0)"/>
     <use xlink:href="#DejaVuSans-3d" transform="translate(188.671875 0)"/>
     <use xlink:href="#DejaVuSans-31" transform="translate(272.460938 0)"/>
    </g>
   </g>
   <g id="text_54">
    <!-- mid=2 -->
    <g style="fill: #245b2d" transform="translate(627.040369 370.959834) rotate(-90) scale(0.07 -0.07)">
     <use xlink:href="#DejaVuSans-6d"/>
     <use xlink:href="#DejaVuSans-69" transform="translate(97.412109 0)"/>
     <use xlink:href="#DejaVuSans-64" transform="translate(125.195312 0)"/>
     <use xlink:href="#DejaVuSans-3d" transform="translate(188.671875 0)"/>
     <use xlink:href="#DejaVuSans-32" transform="translate(272.460938 0)"/>
    </g>
   </g>
   <g id="text_55">
    <!-- mid=1 -->
    <g style="fill: #245b2d" transform="translate(658.947421 371.044546) rotate(-90) scale(0.07 -0.07)">
     <use xlink:href="#DejaVuSans-6d"/>
     <use xlink:href="#DejaVuSans-69" transform="translate(97.412109 0)"/>
     <use xlink:href="#DejaVuSans-64" transform="translate(125.195312 0)"/>
     <use xlink:href="#DejaVuSans-3d" transform="translate(188.671875 0)"/>
     <use xlink:href="#DejaVuSans-31" transform="translate(272.460938 0)"/>
    </g>
   </g>
   <g id="text_56">
    <!-- mid=1 -->
    <g style="fill: #245b2d" transform="translate(690.854473 371.129258) rotate(-90) scale(0.07 -0.07)">
     <use xlink:href="#DejaVuSans-6d"/>
     <use xlink:href="#DejaVuSans-69" transform="translate(97.412109 0)"/>
     <use xlink:href="#DejaVuSans-64" transform="translate(125.195312 0)"/>
     <use xlink:href="#DejaVuSans-3d" transform="translate(188.671875 0)"/>
     <use xlink:href="#DejaVuSans-31" transform="translate(272.460938 0)"/>
    </g>
   </g>
   <g id="text_57">
    <!-- mid=1 -->
    <g style="fill: #245b2d" transform="translate(722.761524 371.21397) rotate(-90) scale(0.07 -0.07)">
     <use xlink:href="#DejaVuSans-6d"/>
     <use xlink:href="#DejaVuSans-69" transform="translate(97.412109 0)"/>
     <use xlink:href="#DejaVuSans-64" transform="translate(125.195312 0)"/>
     <use xlink:href="#DejaVuSans-3d" transform="translate(188.671875 0)"/>
     <use xlink:href="#DejaVuSans-31" transform="translate(272.460938 0)"/>
    </g>
   </g>
   <g id="text_58">
    <!-- mid=1 -->
    <g style="fill: #245b2d" transform="translate(754.668576 371.21397) rotate(-90) scale(0.07 -0.07)">
     <use xlink:href="#DejaVuSans-6d"/>
     <use xlink:href="#DejaVuSans-69" transform="translate(97.412109 0)"/>
     <use xlink:href="#DejaVuSans-64" transform="translate(125.195312 0)"/>
     <use xlink:href="#DejaVuSans-3d" transform="translate(188.671875 0)"/>
     <use xlink:href="#DejaVuSans-31" transform="translate(272.460938 0)"/>
    </g>
   </g>
   <g id="text_59">
    <!-- mid=1 -->
    <g style="fill: #245b2d" transform="translate(786.575628 371.21397) rotate(-90) scale(0.07 -0.07)">
     <use xlink:href="#DejaVuSans-6d"/>
     <use xlink:href="#DejaVuSans-69" transform="translate(97.412109 0)"/>
     <use xlink:href="#DejaVuSans-64" transform="translate(125.195312 0)"/>
     <use xlink:href="#DejaVuSans-3d" transform="translate(188.671875 0)"/>
     <use xlink:href="#DejaVuSans-31" transform="translate(272.460938 0)"/>
    </g>
   </g>
   <g id="text_60">
    <!-- mid=1 -->
    <g style="fill: #245b2d" transform="translate(818.48268 371.21397) rotate(-90) scale(0.07 -0.07)">
     <use xlink:href="#DejaVuSans-6d"/>
     <use xlink:href="#DejaVuSans-69" transform="translate(97.412109 0)"/>
     <use xlink:href="#DejaVuSans-64" transform="translate(125.195312 0)"/>
     <use xlink:href="#DejaVuSans-3d" transform="translate(188.671875 0)"/>
     <use xlink:href="#DejaVuSans-31" transform="translate(272.460938 0)"/>
    </g>
   </g>
   <g id="text_61">
    <!-- mid=1 -->
    <g style="fill: #245b2d" transform="translate(850.389732 371.21397) rotate(-90) scale(0.07 -0.07)">
     <use xlink:href="#DejaVuSans-6d"/>
     <use xlink:href="#DejaVuSans-69" transform="translate(97.412109 0)"/>
     <use xlink:href="#DejaVuSans-64" transform="translate(125.195312 0)"/>
     <use xlink:href="#DejaVuSans-3d" transform="translate(188.671875 0)"/>
     <use xlink:href="#DejaVuSans-31" transform="translate(272.460938 0)"/>
    </g>
   </g>
   <g id="text_62">
    <!-- case8387pegase: front tier counts by level (single stream) -->
    <g transform="translate(313.523051 21.811765) scale(0.14 -0.14)">
     <defs>
      <path id="DejaVuSans-Bold-63" d="M 3366 3391 
L 3366 2478 
Q 3138 2634 2908 2709 
Q 2678 2784 2431 2784 
Q 1963 2784 1702 2511 
Q 1441 2238 1441 1747 
Q 1441 1256 1702 982 
Q 1963 709 2431 709 
Q 2694 709 2930 787 
Q 3166 866 3366 1019 
L 3366 103 
Q 3103 6 2833 -42 
Q 2563 -91 2291 -91 
Q 1344 -91 809 395 
Q 275 881 275 1747 
Q 275 2613 809 3098 
Q 1344 3584 2291 3584 
Q 2566 3584 2833 3536 
Q 3100 3488 3366 3391 
z
" transform="scale(0.015625)"/>
      <path id="DejaVuSans-Bold-61" d="M 2106 1575 
Q 1756 1575 1579 1456 
Q 1403 1338 1403 1106 
Q 1403 894 1545 773 
Q 1688 653 1941 653 
Q 2256 653 2472 879 
Q 2688 1106 2688 1447 
L 2688 1575 
L 2106 1575 
z
M 3816 1997 
L 3816 0 
L 2688 0 
L 2688 519 
Q 2463 200 2181 54 
Q 1900 -91 1497 -91 
Q 953 -91 614 226 
Q 275 544 275 1050 
Q 275 1666 698 1953 
Q 1122 2241 2028 2241 
L 2688 2241 
L 2688 2328 
Q 2688 2594 2478 2717 
Q 2269 2841 1825 2841 
Q 1466 2841 1156 2769 
Q 847 2697 581 2553 
L 581 3406 
Q 941 3494 1303 3539 
Q 1666 3584 2028 3584 
Q 2975 3584 3395 3211 
Q 3816 2838 3816 1997 
z
" transform="scale(0.015625)"/>
      <path id="DejaVuSans-Bold-73" d="M 3272 3391 
L 3272 2541 
Q 2913 2691 2578 2766 
Q 2244 2841 1947 2841 
Q 1628 2841 1473 2761 
Q 1319 2681 1319 2516 
Q 1319 2381 1436 2309 
Q 1553 2238 1856 2203 
L 2053 2175 
Q 2913 2066 3209 1816 
Q 3506 1566 3506 1031 
Q 3506 472 3093 190 
Q 2681 -91 1863 -91 
Q 1516 -91 1145 -36 
Q 775 19 384 128 
L 384 978 
Q 719 816 1070 734 
Q 1422 653 1784 653 
Q 2113 653 2278 743 
Q 2444 834 2444 1013 
Q 2444 1163 2330 1236 
Q 2216 1309 1875 1350 
L 1678 1375 
Q 931 1469 631 1722 
Q 331 1975 331 2491 
Q 331 3047 712 3315 
Q 1094 3584 1881 3584 
Q 2191 3584 2531 3537 
Q 2872 3491 3272 3391 
z
" transform="scale(0.015625)"/>
      <path id="DejaVuSans-Bold-65" d="M 4031 1759 
L 4031 1441 
L 1416 1441 
Q 1456 1047 1700 850 
Q 1944 653 2381 653 
Q 2734 653 3104 758 
Q 3475 863 3866 1075 
L 3866 213 
Q 3469 63 3072 -14 
Q 2675 -91 2278 -91 
Q 1328 -91 801 392 
Q 275 875 275 1747 
Q 275 2603 792 3093 
Q 1309 3584 2216 3584 
Q 3041 3584 3536 3087 
Q 4031 2591 4031 1759 
z
M 2881 2131 
Q 2881 2450 2695 2645 
Q 2509 2841 2209 2841 
Q 1884 2841 1681 2658 
Q 1478 2475 1428 2131 
L 2881 2131 
z
" transform="scale(0.015625)"/>
      <path id="DejaVuSans-Bold-38" d="M 2228 2088 
Q 1891 2088 1709 1903 
Q 1528 1719 1528 1375 
Q 1528 1031 1709 848 
Q 1891 666 2228 666 
Q 2563 666 2741 848 
Q 2919 1031 2919 1375 
Q 2919 1722 2741 1905 
Q 2563 2088 2228 2088 
z
M 1350 2484 
Q 925 2613 709 2878 
Q 494 3144 494 3541 
Q 494 4131 934 4440 
Q 1375 4750 2228 4750 
Q 3075 4750 3515 4442 
Q 3956 4134 3956 3541 
Q 3956 3144 3739 2878 
Q 3522 2613 3097 2484 
Q 3572 2353 3814 2058 
Q 4056 1763 4056 1313 
Q 4056 619 3595 264 
Q 3134 -91 2228 -91 
Q 1319 -91 855 264 
Q 391 619 391 1313 
Q 391 1763 633 2058 
Q 875 2353 1350 2484 
z
M 1631 3419 
Q 1631 3141 1786 2991 
Q 1941 2841 2228 2841 
Q 2509 2841 2662 2991 
Q 2816 3141 2816 3419 
Q 2816 3697 2662 3845 
Q 2509 3994 2228 3994 
Q 1941 3994 1786 3844 
Q 1631 3694 1631 3419 
z
" transform="scale(0.015625)"/>
      <path id="DejaVuSans-Bold-33" d="M 2981 2516 
Q 3453 2394 3698 2092 
Q 3944 1791 3944 1325 
Q 3944 631 3412 270 
Q 2881 -91 1863 -91 
Q 1503 -91 1142 -33 
Q 781 25 428 141 
L 428 1069 
Q 766 900 1098 814 
Q 1431 728 1753 728 
Q 2231 728 2486 893 
Q 2741 1059 2741 1369 
Q 2741 1688 2480 1852 
Q 2219 2016 1709 2016 
L 1228 2016 
L 1228 2791 
L 1734 2791 
Q 2188 2791 2409 2933 
Q 2631 3075 2631 3366 
Q 2631 3634 2415 3781 
Q 2200 3928 1806 3928 
Q 1516 3928 1219 3862 
Q 922 3797 628 3669 
L 628 4550 
Q 984 4650 1334 4700 
Q 1684 4750 2022 4750 
Q 2931 4750 3382 4451 
Q 3834 4153 3834 3553 
Q 3834 3144 3618 2883 
Q 3403 2622 2981 2516 
z
" transform="scale(0.015625)"/>
      <path id="DejaVuSans-Bold-37" d="M 428 4666 
L 3944 4666 
L 3944 3988 
L 2125 0 
L 953 0 
L 2675 3781 
L 428 3781 
L 428 4666 
z
" transform="scale(0.015625)"/>
      <path id="DejaVuSans-Bold-70" d="M 1656 506 
L 1656 -1331 
L 538 -1331 
L 538 3500 
L 1656 3500 
L 1656 2988 
Q 1888 3294 2169 3439 
Q 2450 3584 2816 3584 
Q 3463 3584 3878 3070 
Q 4294 2556 4294 1747 
Q 4294 938 3878 423 
Q 3463 -91 2816 -91 
Q 2450 -91 2169 54 
Q 1888 200 1656 506 
z
M 2400 2772 
Q 2041 2772 1848 2508 
Q 1656 2244 1656 1747 
Q 1656 1250 1848 986 
Q 2041 722 2400 722 
Q 2759 722 2948 984 
Q 3138 1247 3138 1747 
Q 3138 2247 2948 2509 
Q 2759 2772 2400 2772 
z
" transform="scale(0.015625)"/>
      <path id="DejaVuSans-Bold-67" d="M 2919 594 
Q 2688 288 2409 144 
Q 2131 0 1766 0 
Q 1125 0 706 504 
Q 288 1009 288 1791 
Q 288 2575 706 3076 
Q 1125 3578 1766 3578 
Q 2131 3578 2409 3434 
Q 2688 3291 2919 2981 
L 2919 3500 
L 4044 3500 
L 4044 353 
Q 4044 -491 3511 -936 
Q 2978 -1381 1966 -1381 
Q 1638 -1381 1331 -1331 
Q 1025 -1281 716 -1178 
L 716 -306 
Q 1009 -475 1290 -558 
Q 1572 -641 1856 -641 
Q 2406 -641 2662 -400 
Q 2919 -159 2919 353 
L 2919 594 
z
M 2181 2772 
Q 1834 2772 1640 2515 
Q 1447 2259 1447 1791 
Q 1447 1309 1634 1061 
Q 1822 813 2181 813 
Q 2531 813 2725 1069 
Q 2919 1325 2919 1791 
Q 2919 2259 2725 2515 
Q 2531 2772 2181 2772 
z
" transform="scale(0.015625)"/>
      <path id="DejaVuSans-Bold-3a" d="M 716 3500 
L 1844 3500 
L 1844 2291 
L 716 2291 
L 716 3500 
z
M 716 1209 
L 1844 1209 
L 1844 0 
L 716 0 
L 716 1209 
z
" transform="scale(0.015625)"/>
      <path id="DejaVuSans-Bold-20" transform="scale(0.015625)"/>
      <path id="DejaVuSans-Bold-66" d="M 2841 4863 
L 2841 4128 
L 2222 4128 
Q 1984 4128 1890 4042 
Q 1797 3956 1797 3744 
L 1797 3500 
L 2753 3500 
L 2753 2700 
L 1797 2700 
L 1797 0 
L 678 0 
L 678 2700 
L 122 2700 
L 122 3500 
L 678 3500 
L 678 3744 
Q 678 4316 997 4589 
Q 1316 4863 1984 4863 
L 2841 4863 
z
" transform="scale(0.015625)"/>
      <path id="DejaVuSans-Bold-72" d="M 3138 2547 
Q 2991 2616 2845 2648 
Q 2700 2681 2553 2681 
Q 2122 2681 1889 2404 
Q 1656 2128 1656 1613 
L 1656 0 
L 538 0 
L 538 3500 
L 1656 3500 
L 1656 2925 
Q 1872 3269 2151 3426 
Q 2431 3584 2822 3584 
Q 2878 3584 2943 3579 
Q 3009 3575 3134 3559 
L 3138 2547 
z
" transform="scale(0.015625)"/>
      <path id="DejaVuSans-Bold-6f" d="M 2203 2784 
Q 1831 2784 1636 2517 
Q 1441 2250 1441 1747 
Q 1441 1244 1636 976 
Q 1831 709 2203 709 
Q 2569 709 2762 976 
Q 2956 1244 2956 1747 
Q 2956 2250 2762 2517 
Q 2569 2784 2203 2784 
z
M 2203 3584 
Q 3106 3584 3614 3096 
Q 4122 2609 4122 1747 
Q 4122 884 3614 396 
Q 3106 -91 2203 -91 
Q 1297 -91 786 396 
Q 275 884 275 1747 
Q 275 2609 786 3096 
Q 1297 3584 2203 3584 
z
" transform="scale(0.015625)"/>
      <path id="DejaVuSans-Bold-6e" d="M 4056 2131 
L 4056 0 
L 2931 0 
L 2931 347 
L 2931 1631 
Q 2931 2084 2911 2256 
Q 2891 2428 2841 2509 
Q 2775 2619 2662 2680 
Q 2550 2741 2406 2741 
Q 2056 2741 1856 2470 
Q 1656 2200 1656 1722 
L 1656 0 
L 538 0 
L 538 3500 
L 1656 3500 
L 1656 2988 
Q 1909 3294 2193 3439 
Q 2478 3584 2822 3584 
Q 3428 3584 3742 3212 
Q 4056 2841 4056 2131 
z
" transform="scale(0.015625)"/>
      <path id="DejaVuSans-Bold-74" d="M 1759 4494 
L 1759 3500 
L 2913 3500 
L 2913 2700 
L 1759 2700 
L 1759 1216 
Q 1759 972 1856 886 
Q 1953 800 2241 800 
L 2816 800 
L 2816 0 
L 1856 0 
Q 1194 0 917 276 
Q 641 553 641 1216 
L 641 2700 
L 84 2700 
L 84 3500 
L 641 3500 
L 641 4494 
L 1759 4494 
z
" transform="scale(0.015625)"/>
      <path id="DejaVuSans-Bold-69" d="M 538 3500 
L 1656 3500 
L 1656 0 
L 538 0 
L 538 3500 
z
M 538 4863 
L 1656 4863 
L 1656 3950 
L 538 3950 
L 538 4863 
z
" transform="scale(0.015625)"/>
      <path id="DejaVuSans-Bold-75" d="M 500 1363 
L 500 3500 
L 1625 3500 
L 1625 3150 
Q 1625 2866 1622 2436 
Q 1619 2006 1619 1863 
Q 1619 1441 1641 1255 
Q 1663 1069 1716 984 
Q 1784 875 1895 815 
Q 2006 756 2150 756 
Q 2500 756 2700 1025 
Q 2900 1294 2900 1772 
L 2900 3500 
L 4019 3500 
L 4019 0 
L 2900 0 
L 2900 506 
Q 2647 200 2364 54 
Q 2081 -91 1741 -91 
Q 1134 -91 817 281 
Q 500 653 500 1363 
z
" transform="scale(0.015625)"/>
      <path id="DejaVuSans-Bold-62" d="M 2400 722 
Q 2759 722 2948 984 
Q 3138 1247 3138 1747 
Q 3138 2247 2948 2509 
Q 2759 2772 2400 2772 
Q 2041 2772 1848 2508 
Q 1656 2244 1656 1747 
Q 1656 1250 1848 986 
Q 2041 722 2400 722 
z
M 1656 2988 
Q 1888 3294 2169 3439 
Q 2450 3584 2816 3584 
Q 3463 3584 3878 3070 
Q 4294 2556 4294 1747 
Q 4294 938 3878 423 
Q 3463 -91 2816 -91 
Q 2450 -91 2169 54 
Q 1888 200 1656 506 
L 1656 0 
L 538 0 
L 538 4863 
L 1656 4863 
L 1656 2988 
z
" transform="scale(0.015625)"/>
      <path id="DejaVuSans-Bold-79" d="M 78 3500 
L 1197 3500 
L 2138 1125 
L 2938 3500 
L 4056 3500 
L 2584 -331 
Q 2363 -916 2067 -1148 
Q 1772 -1381 1288 -1381 
L 641 -1381 
L 641 -647 
L 991 -647 
Q 1275 -647 1404 -556 
Q 1534 -466 1606 -231 
L 1638 -134 
L 78 3500 
z
" transform="scale(0.015625)"/>
      <path id="DejaVuSans-Bold-6c" d="M 538 4863 
L 1656 4863 
L 1656 0 
L 538 0 
L 538 4863 
z
" transform="scale(0.015625)"/>
      <path id="DejaVuSans-Bold-76" d="M 97 3500 
L 1216 3500 
L 2088 1081 
L 2956 3500 
L 4078 3500 
L 2700 0 
L 1472 0 
L 97 3500 
z
" transform="scale(0.015625)"/>
      <path id="DejaVuSans-Bold-28" d="M 2413 -844 
L 1484 -844 
Q 1006 -72 778 623 
Q 550 1319 550 2003 
Q 550 2688 779 3389 
Q 1009 4091 1484 4856 
L 2413 4856 
Q 2013 4116 1813 3408 
Q 1613 2700 1613 2009 
Q 1613 1319 1811 609 
Q 2009 -100 2413 -844 
z
" transform="scale(0.015625)"/>
      <path id="DejaVuSans-Bold-6d" d="M 3781 2919 
Q 3994 3244 4286 3414 
Q 4578 3584 4928 3584 
Q 5531 3584 5847 3212 
Q 6163 2841 6163 2131 
L 6163 0 
L 5038 0 
L 5038 1825 
Q 5041 1866 5042 1909 
Q 5044 1953 5044 2034 
Q 5044 2406 4934 2573 
Q 4825 2741 4581 2741 
Q 4263 2741 4089 2478 
Q 3916 2216 3909 1719 
L 3909 0 
L 2784 0 
L 2784 1825 
Q 2784 2406 2684 2573 
Q 2584 2741 2328 2741 
Q 2006 2741 1831 2477 
Q 1656 2213 1656 1722 
L 1656 0 
L 531 0 
L 531 3500 
L 1656 3500 
L 1656 2988 
Q 1863 3284 2130 3434 
Q 2397 3584 2719 3584 
Q 3081 3584 3359 3409 
Q 3638 3234 3781 2919 
z
" transform="scale(0.015625)"/>
      <path id="DejaVuSans-Bold-29" d="M 513 -844 
Q 913 -100 1113 609 
Q 1313 1319 1313 2009 
Q 1313 2700 1113 3408 
Q 913 4116 513 4856 
L 1441 4856 
Q 1916 4091 2145 3389 
Q 2375 2688 2375 2003 
Q 2375 1319 2147 623 
Q 1919 -72 1441 -844 
L 513 -844 
z
" transform="scale(0.015625)"/>
     </defs>
     <use xlink:href="#DejaVuSans-Bold-63"/>
     <use xlink:href="#DejaVuSans-Bold-61" transform="translate(59.277344 0)"/>
     <use xlink:href="#DejaVuSans-Bold-73" transform="translate(126.757812 0)"/>
     <use xlink:href="#DejaVuSans-Bold-65" transform="translate(186.279297 0)"/>
     <use xlink:href="#DejaVuSans-Bold-38" transform="translate(254.101562 0)"/>
     <use xlink:href="#DejaVuSans-Bold-33" transform="translate(323.681641 0)"/>
     <use xlink:href="#DejaVuSans-Bold-38" transform="translate(393.261719 0)"/>
     <use xlink:href="#DejaVuSans-Bold-37" transform="translate(462.841797 0)"/>
     <use xlink:href="#DejaVuSans-Bold-70" transform="translate(532.421875 0)"/>
     <use xlink:href="#DejaVuSans-Bold-65" transform="translate(604.003906 0)"/>
     <use xlink:href="#DejaVuSans-Bold-67" transform="translate(671.826172 0)"/>
     <use xlink:href="#DejaVuSans-Bold-61" transform="translate(743.408203 0)"/>
     <use xlink:href="#DejaVuSans-Bold-73" transform="translate(810.888672 0)"/>
     <use xlink:href="#DejaVuSans-Bold-65" transform="translate(870.410156 0)"/>
     <use xlink:href="#DejaVuSans-Bold-3a" transform="translate(938.232422 0)"/>
     <use xlink:href="#DejaVuSans-Bold-20" transform="translate(978.222656 0)"/>
     <use xlink:href="#DejaVuSans-Bold-66" transform="translate(1013.037109 0)"/>
     <use xlink:href="#DejaVuSans-Bold-72" transform="translate(1056.542969 0)"/>
     <use xlink:href="#DejaVuSans-Bold-6f" transform="translate(1105.859375 0)"/>
     <use xlink:href="#DejaVuSans-Bold-6e" transform="translate(1174.560547 0)"/>
     <use xlink:href="#DejaVuSans-Bold-74" transform="translate(1245.751953 0)"/>
     <use xlink:href="#DejaVuSans-Bold-20" transform="translate(1293.554688 0)"/>
     <use xlink:href="#DejaVuSans-Bold-74" transform="translate(1328.369141 0)"/>
     <use xlink:href="#DejaVuSans-Bold-69" transform="translate(1376.171875 0)"/>
     <use xlink:href="#DejaVuSans-Bold-65" transform="translate(1410.449219 0)"/>
     <use xlink:href="#DejaVuSans-Bold-72" transform="translate(1478.271484 0)"/>
     <use xlink:href="#DejaVuSans-Bold-20" transform="translate(1527.587891 0)"/>
     <use xlink:href="#DejaVuSans-Bold-63" transform="translate(1562.402344 0)"/>
     <use xlink:href="#DejaVuSans-Bold-6f" transform="translate(1621.679688 0)"/>
     <use xlink:href="#DejaVuSans-Bold-75" transform="translate(1690.380859 0)"/>
     <use xlink:href="#DejaVuSans-Bold-6e" transform="translate(1761.572266 0)"/>
     <use xlink:href="#DejaVuSans-Bold-74" transform="translate(1832.763672 0)"/>
     <use xlink:href="#DejaVuSans-Bold-73" transform="translate(1880.566406 0)"/>
     <use xlink:href="#DejaVuSans-Bold-20" transform="translate(1940.087891 0)"/>
     <use xlink:href="#DejaVuSans-Bold-62" transform="translate(1974.902344 0)"/>
     <use xlink:href="#DejaVuSans-Bold-79" transform="translate(2046.484375 0)"/>
     <use xlink:href="#DejaVuSans-Bold-20" transform="translate(2111.669922 0)"/>
     <use xlink:href="#DejaVuSans-Bold-6c" transform="translate(2146.484375 0)"/>
     <use xlink:href="#DejaVuSans-Bold-65" transform="translate(2180.761719 0)"/>
     <use xlink:href="#DejaVuSans-Bold-76" transform="translate(2248.583984 0)"/>
     <use xlink:href="#DejaVuSans-Bold-65" transform="translate(2313.769531 0)"/>
     <use xlink:href="#DejaVuSans-Bold-6c" transform="translate(2381.591797 0)"/>
     <use xlink:href="#DejaVuSans-Bold-20" transform="translate(2415.869141 0)"/>
     <use xlink:href="#DejaVuSans-Bold-28" transform="translate(2450.683594 0)"/>
     <use xlink:href="#DejaVuSans-Bold-73" transform="translate(2496.386719 0)"/>
     <use xlink:href="#DejaVuSans-Bold-69" transform="translate(2555.908203 0)"/>
     <use xlink:href="#DejaVuSans-Bold-6e" transform="translate(2590.185547 0)"/>
     <use xlink:href="#DejaVuSans-Bold-67" transform="translate(2661.376953 0)"/>
     <use xlink:href="#DejaVuSans-Bold-6c" transform="translate(2732.958984 0)"/>
     <use xlink:href="#DejaVuSans-Bold-65" transform="translate(2767.236328 0)"/>
     <use xlink:href="#DejaVuSans-Bold-20" transform="translate(2835.058594 0)"/>
     <use xlink:href="#DejaVuSans-Bold-73" transform="translate(2869.873047 0)"/>
     <use xlink:href="#DejaVuSans-Bold-74" transform="translate(2929.394531 0)"/>
     <use xlink:href="#DejaVuSans-Bold-72" transform="translate(2977.197266 0)"/>
     <use xlink:href="#DejaVuSans-Bold-65" transform="translate(3026.513672 0)"/>
     <use xlink:href="#DejaVuSans-Bold-61" transform="translate(3094.335938 0)"/>
     <use xlink:href="#DejaVuSans-Bold-6d" transform="translate(3161.816406 0)"/>
     <use xlink:href="#DejaVuSans-Bold-29" transform="translate(3266.015625 0)"/>
    </g>
   </g>
   <g id="legend_1">
    <g id="patch_91">
     <path d="M 894.845313 44.410202 
L 914.845313 44.410202 
L 914.845313 37.410202 
L 894.845313 37.410202 
z
" style="fill: #4c78a8"/>
    </g>
    <g id="text_63">
     <!-- small fsz&lt;=32 -->
     <g transform="translate(922.845313 44.410202) scale(0.1 -0.1)">
      <defs>
       <path id="DejaVuSans-73" d="M 2834 3397 
L 2834 2853 
Q 2591 2978 2328 3040 
Q 2066 3103 1784 3103 
Q 1356 3103 1142 2972 
Q 928 2841 928 2578 
Q 928 2378 1081 2264 
Q 1234 2150 1697 2047 
L 1894 2003 
Q 2506 1872 2764 1633 
Q 3022 1394 3022 966 
Q 3022 478 2636 193 
Q 2250 -91 1575 -91 
Q 1294 -91 989 -36 
Q 684 19 347 128 
L 347 722 
Q 666 556 975 473 
Q 1284 391 1588 391 
Q 1994 391 2212 530 
Q 2431 669 2431 922 
Q 2431 1156 2273 1281 
Q 2116 1406 1581 1522 
L 1381 1569 
Q 847 1681 609 1914 
Q 372 2147 372 2553 
Q 372 3047 722 3315 
Q 1072 3584 1716 3584 
Q 2034 3584 2315 3537 
Q 2597 3491 2834 3397 
z
" transform="scale(0.015625)"/>
       <path id="DejaVuSans-61" d="M 2194 1759 
Q 1497 1759 1228 1600 
Q 959 1441 959 1056 
Q 959 750 1161 570 
Q 1363 391 1709 391 
Q 2188 391 2477 730 
Q 2766 1069 2766 1631 
L 2766 1759 
L 2194 1759 
z
M 3341 1997 
L 3341 0 
L 2766 0 
L 2766 531 
Q 2569 213 2275 61 
Q 1981 -91 1556 -91 
Q 1019 -91 701 211 
Q 384 513 384 1019 
Q 384 1609 779 1909 
Q 1175 2209 1959 2209 
L 2766 2209 
L 2766 2266 
Q 2766 2663 2505 2880 
Q 2244 3097 1772 3097 
Q 1472 3097 1187 3025 
Q 903 2953 641 2809 
L 641 3341 
Q 956 3463 1253 3523 
Q 1550 3584 1831 3584 
Q 2591 3584 2966 3190 
Q 3341 2797 3341 1997 
z
" transform="scale(0.015625)"/>
       <path id="DejaVuSans-7a" d="M 353 3500 
L 3084 3500 
L 3084 2975 
L 922 459 
L 3084 459 
L 3084 0 
L 275 0 
L 275 525 
L 2438 3041 
L 353 3041 
L 353 3500 
z
" transform="scale(0.015625)"/>
       <path id="DejaVuSans-3c" d="M 4684 3150 
L 1459 2003 
L 4684 863 
L 4684 294 
L 678 1747 
L 678 2266 
L 4684 3719 
L 4684 3150 
z
" transform="scale(0.015625)"/>
      </defs>
      <use xlink:href="#DejaVuSans-73"/>
      <use xlink:href="#DejaVuSans-6d" transform="translate(52.099609 0)"/>
      <use xlink:href="#DejaVuSans-61" transform="translate(149.511719 0)"/>
      <use xlink:href="#DejaVuSans-6c" transform="translate(210.791016 0)"/>
      <use xlink:href="#DejaVuSans-6c" transform="translate(238.574219 0)"/>
      <use xlink:href="#DejaVuSans-20" transform="translate(266.357422 0)"/>
      <use xlink:href="#DejaVuSans-66" transform="translate(298.144531 0)"/>
      <use xlink:href="#DejaVuSans-73" transform="translate(333.349609 0)"/>
      <use xlink:href="#DejaVuSans-7a" transform="translate(385.449219 0)"/>
      <use xlink:href="#DejaVuSans-3c" transform="translate(437.939453 0)"/>
      <use xlink:href="#DejaVuSans-3d" transform="translate(521.728516 0)"/>
      <use xlink:href="#DejaVuSans-33" transform="translate(605.517578 0)"/>
      <use xlink:href="#DejaVuSans-32" transform="translate(669.140625 0)"/>
     </g>
    </g>
    <g id="patch_92">
     <path d="M 894.845313 59.088327 
L 914.845313 59.088327 
L 914.845313 52.088327 
L 894.845313 52.088327 
z
" style="fill: #54a24b"/>
    </g>
    <g id="text_64">
     <!-- mid 33&lt;=fsz&lt;=128 -->
     <g transform="translate(922.845313 59.088327) scale(0.1 -0.1)">
      <use xlink:href="#DejaVuSans-6d"/>
      <use xlink:href="#DejaVuSans-69" transform="translate(97.412109 0)"/>
      <use xlink:href="#DejaVuSans-64" transform="translate(125.195312 0)"/>
      <use xlink:href="#DejaVuSans-20" transform="translate(188.671875 0)"/>
      <use xlink:href="#DejaVuSans-33" transform="translate(220.458984 0)"/>
      <use xlink:href="#DejaVuSans-33" transform="translate(284.082031 0)"/>
      <use xlink:href="#DejaVuSans-3c" transform="translate(347.705078 0)"/>
      <use xlink:href="#DejaVuSans-3d" transform="translate(431.494141 0)"/>
      <use xlink:href="#DejaVuSans-66" transform="translate(515.283203 0)"/>
      <use xlink:href="#DejaVuSans-73" transform="translate(550.488281 0)"/>
      <use xlink:href="#DejaVuSans-7a" transform="translate(602.587891 0)"/>
      <use xlink:href="#DejaVuSans-3c" transform="translate(655.078125 0)"/>
      <use xlink:href="#DejaVuSans-3d" transform="translate(738.867188 0)"/>
      <use xlink:href="#DejaVuSans-31" transform="translate(822.65625 0)"/>
      <use xlink:href="#DejaVuSans-32" transform="translate(886.279297 0)"/>
      <use xlink:href="#DejaVuSans-38" transform="translate(949.902344 0)"/>
     </g>
    </g>
    <g id="patch_93">
     <path d="M 894.845313 73.766452 
L 914.845313 73.766452 
L 914.845313 66.766452 
L 894.845313 66.766452 
z
" style="fill: #e45756"/>
    </g>
    <g id="text_65">
     <!-- big &gt;128 -->
     <g transform="translate(922.845313 73.766452) scale(0.1 -0.1)">
      <defs>
       <path id="DejaVuSans-62" d="M 3116 1747 
Q 3116 2381 2855 2742 
Q 2594 3103 2138 3103 
Q 1681 3103 1420 2742 
Q 1159 2381 1159 1747 
Q 1159 1113 1420 752 
Q 1681 391 2138 391 
Q 2594 391 2855 752 
Q 3116 1113 3116 1747 
z
M 1159 2969 
Q 1341 3281 1617 3432 
Q 1894 3584 2278 3584 
Q 2916 3584 3314 3078 
Q 3713 2572 3713 1747 
Q 3713 922 3314 415 
Q 2916 -91 2278 -91 
Q 1894 -91 1617 61 
Q 1341 213 1159 525 
L 1159 0 
L 581 0 
L 581 4863 
L 1159 4863 
L 1159 2969 
z
" transform="scale(0.015625)"/>
       <path id="DejaVuSans-67" d="M 2906 1791 
Q 2906 2416 2648 2759 
Q 2391 3103 1925 3103 
Q 1463 3103 1205 2759 
Q 947 2416 947 1791 
Q 947 1169 1205 825 
Q 1463 481 1925 481 
Q 2391 481 2648 825 
Q 2906 1169 2906 1791 
z
M 3481 434 
Q 3481 -459 3084 -895 
Q 2688 -1331 1869 -1331 
Q 1566 -1331 1297 -1286 
Q 1028 -1241 775 -1147 
L 775 -588 
Q 1028 -725 1275 -790 
Q 1522 -856 1778 -856 
Q 2344 -856 2625 -561 
Q 2906 -266 2906 331 
L 2906 616 
Q 2728 306 2450 153 
Q 2172 0 1784 0 
Q 1141 0 747 490 
Q 353 981 353 1791 
Q 353 2603 747 3093 
Q 1141 3584 1784 3584 
Q 2172 3584 2450 3431 
Q 2728 3278 2906 2969 
L 2906 3500 
L 3481 3500 
L 3481 434 
z
" transform="scale(0.015625)"/>
       <path id="DejaVuSans-3e" d="M 678 3150 
L 678 3719 
L 4684 2266 
L 4684 1747 
L 678 294 
L 678 863 
L 3897 2003 
L 678 3150 
z
" transform="scale(0.015625)"/>
      </defs>
      <use xlink:href="#DejaVuSans-62"/>
      <use xlink:href="#DejaVuSans-69" transform="translate(63.476562 0)"/>
      <use xlink:href="#DejaVuSans-67" transform="translate(91.259766 0)"/>
      <use xlink:href="#DejaVuSans-20" transform="translate(154.736328 0)"/>
      <use xlink:href="#DejaVuSans-3e" transform="translate(186.523438 0)"/>
      <use xlink:href="#DejaVuSans-31" transform="translate(270.3125 0)"/>
      <use xlink:href="#DejaVuSans-32" transform="translate(333.935547 0)"/>
      <use xlink:href="#DejaVuSans-38" transform="translate(397.558594 0)"/>
     </g>
    </g>
   </g>
  </g>
 </g>
 <defs>
  <clipPath id="p06ec9b5bc1">
   <rect x="57.482353" y="27.811765" width="975.717647" height="347.658824"/>
  </clipPath>
 </defs>
</svg>
